<?xml version="1.0" encoding="utf-8" standalone="no"?>
<!DOCTYPE svg PUBLIC "-//W3C//DTD SVG 1.1//EN"
  "http://www.w3.org/Graphics/SVG/1.1/DTD/svg11.dtd">
<svg xmlns:xlink="http://www.w3.org/1999/xlink" width="343.379705pt" height="343.859534pt" viewBox="0 0 343.379705 343.859534" xmlns="http://www.w3.org/2000/svg" version="1.1">
 <metadata>
  <rdf:RDF xmlns:dc="http://purl.org/dc/elements/1.1/" xmlns:cc="http://creativecommons.org/ns#" xmlns:rdf="http://www.w3.org/1999/02/22-rdf-syntax-ns#">
   <cc:Work>
    <dc:type rdf:resource="http://purl.org/dc/dcmitype/StillImage"/>
    <dc:date>2022-10-14T19:34:00.061621</dc:date>
    <dc:format>image/svg+xml</dc:format>
    <dc:creator>
     <cc:Agent>
      <dc:title>Matplotlib v3.6.1, https://matplotlib.org/</dc:title>
     </cc:Agent>
    </dc:creator>
   </cc:Work>
  </rdf:RDF>
 </metadata>
 <defs>
  <style type="text/css">*{stroke-linejoin: round; stroke-linecap: butt}</style>
 </defs>
 <g id="figure_1">
  <g id="patch_1">
   <path d="M 0 343.859534 
L 343.379705 343.859534 
L 343.379705 0 
L 0 0 
z
" style="fill: #f0f0f0"/>
  </g>
  <g id="axes_1">
   <g id="patch_2">
    <path d="M 48.77425 299.350909 
L 336.179705 299.350909 
L 336.179705 7.2 
L 48.77425 7.2 
z
" style="fill: #f0f0f0"/>
   </g>
   <g id="matplotlib.axis_1">
    <g id="xtick_1">
     <g id="line2d_1">
      <path d="M 73.050452 299.350909 
L 73.050452 7.2 
" clip-path="url(#pf52f159fad)" style="fill: none; stroke: #cbcbcb"/>
     </g>
     <g id="line2d_2"/>
     <g id="text_1">
      <!-- 50 -->
      <g transform="translate(64.142952 313.488722) scale(0.14 -0.14)">
       <defs>
        <path id="DejaVuSans-35" d="M 691 4666 
L 3169 4666 
L 3169 4134 
L 1269 4134 
L 1269 2991 
Q 1406 3038 1543 3061 
Q 1681 3084 1819 3084 
Q 2600 3084 3056 2656 
Q 3513 2228 3513 1497 
Q 3513 744 3044 326 
Q 2575 -91 1722 -91 
Q 1428 -91 1123 -41 
Q 819 9 494 109 
L 494 744 
Q 775 591 1075 516 
Q 1375 441 1709 441 
Q 2250 441 2565 725 
Q 2881 1009 2881 1497 
Q 2881 1984 2565 2268 
Q 2250 2553 1709 2553 
Q 1456 2553 1204 2497 
Q 953 2441 691 2322 
L 691 4666 
z
" transform="scale(0.015625)"/>
        <path id="DejaVuSans-30" d="M 2034 4250 
Q 1547 4250 1301 3770 
Q 1056 3291 1056 2328 
Q 1056 1369 1301 889 
Q 1547 409 2034 409 
Q 2525 409 2770 889 
Q 3016 1369 3016 2328 
Q 3016 3291 2770 3770 
Q 2525 4250 2034 4250 
z
M 2034 4750 
Q 2819 4750 3233 4129 
Q 3647 3509 3647 2328 
Q 3647 1150 3233 529 
Q 2819 -91 2034 -91 
Q 1250 -91 836 529 
Q 422 1150 422 2328 
Q 422 3509 836 4129 
Q 1250 4750 2034 4750 
z
" transform="scale(0.015625)"/>
       </defs>
       <use xlink:href="#DejaVuSans-35"/>
       <use xlink:href="#DejaVuSans-30" x="63.623047"/>
      </g>
     </g>
    </g>
    <g id="xtick_2">
     <g id="line2d_3">
      <path d="M 163.326758 299.350909 
L 163.326758 7.2 
" clip-path="url(#pf52f159fad)" style="fill: none; stroke: #cbcbcb"/>
     </g>
     <g id="line2d_4"/>
     <g id="text_2">
      <!-- 100 -->
      <g transform="translate(149.965508 313.488722) scale(0.14 -0.14)">
       <defs>
        <path id="DejaVuSans-31" d="M 794 531 
L 1825 531 
L 1825 4091 
L 703 3866 
L 703 4441 
L 1819 4666 
L 2450 4666 
L 2450 531 
L 3481 531 
L 3481 0 
L 794 0 
L 794 531 
z
" transform="scale(0.015625)"/>
       </defs>
       <use xlink:href="#DejaVuSans-31"/>
       <use xlink:href="#DejaVuSans-30" x="63.623047"/>
       <use xlink:href="#DejaVuSans-30" x="127.246094"/>
      </g>
     </g>
    </g>
    <g id="xtick_3">
     <g id="line2d_5">
      <path d="M 253.603064 299.350909 
L 253.603064 7.2 
" clip-path="url(#pf52f159fad)" style="fill: none; stroke: #cbcbcb"/>
     </g>
     <g id="line2d_6"/>
     <g id="text_3">
      <!-- 150 -->
      <g transform="translate(240.241814 313.488722) scale(0.14 -0.14)">
       <use xlink:href="#DejaVuSans-31"/>
       <use xlink:href="#DejaVuSans-35" x="63.623047"/>
       <use xlink:href="#DejaVuSans-30" x="127.246094"/>
      </g>
     </g>
    </g>
    <g id="text_4">
     <!-- perimeter -->
     <g transform="translate(150.923227 333.165659) scale(0.168 -0.168)">
      <defs>
       <path id="DejaVuSans-70" d="M 1159 525 
L 1159 -1331 
L 581 -1331 
L 581 3500 
L 1159 3500 
L 1159 2969 
Q 1341 3281 1617 3432 
Q 1894 3584 2278 3584 
Q 2916 3584 3314 3078 
Q 3713 2572 3713 1747 
Q 3713 922 3314 415 
Q 2916 -91 2278 -91 
Q 1894 -91 1617 61 
Q 1341 213 1159 525 
z
M 3116 1747 
Q 3116 2381 2855 2742 
Q 2594 3103 2138 3103 
Q 1681 3103 1420 2742 
Q 1159 2381 1159 1747 
Q 1159 1113 1420 752 
Q 1681 391 2138 391 
Q 2594 391 2855 752 
Q 3116 1113 3116 1747 
z
" transform="scale(0.015625)"/>
       <path id="DejaVuSans-65" d="M 3597 1894 
L 3597 1613 
L 953 1613 
Q 991 1019 1311 708 
Q 1631 397 2203 397 
Q 2534 397 2845 478 
Q 3156 559 3463 722 
L 3463 178 
Q 3153 47 2828 -22 
Q 2503 -91 2169 -91 
Q 1331 -91 842 396 
Q 353 884 353 1716 
Q 353 2575 817 3079 
Q 1281 3584 2069 3584 
Q 2775 3584 3186 3129 
Q 3597 2675 3597 1894 
z
M 3022 2063 
Q 3016 2534 2758 2815 
Q 2500 3097 2075 3097 
Q 1594 3097 1305 2825 
Q 1016 2553 972 2059 
L 3022 2063 
z
" transform="scale(0.015625)"/>
       <path id="DejaVuSans-72" d="M 2631 2963 
Q 2534 3019 2420 3045 
Q 2306 3072 2169 3072 
Q 1681 3072 1420 2755 
Q 1159 2438 1159 1844 
L 1159 0 
L 581 0 
L 581 3500 
L 1159 3500 
L 1159 2956 
Q 1341 3275 1631 3429 
Q 1922 3584 2338 3584 
Q 2397 3584 2469 3576 
Q 2541 3569 2628 3553 
L 2631 2963 
z
" transform="scale(0.015625)"/>
       <path id="DejaVuSans-69" d="M 603 3500 
L 1178 3500 
L 1178 0 
L 603 0 
L 603 3500 
z
M 603 4863 
L 1178 4863 
L 1178 4134 
L 603 4134 
L 603 4863 
z
" transform="scale(0.015625)"/>
       <path id="DejaVuSans-6d" d="M 3328 2828 
Q 3544 3216 3844 3400 
Q 4144 3584 4550 3584 
Q 5097 3584 5394 3201 
Q 5691 2819 5691 2113 
L 5691 0 
L 5113 0 
L 5113 2094 
Q 5113 2597 4934 2840 
Q 4756 3084 4391 3084 
Q 3944 3084 3684 2787 
Q 3425 2491 3425 1978 
L 3425 0 
L 2847 0 
L 2847 2094 
Q 2847 2600 2669 2842 
Q 2491 3084 2119 3084 
Q 1678 3084 1418 2786 
Q 1159 2488 1159 1978 
L 1159 0 
L 581 0 
L 581 3500 
L 1159 3500 
L 1159 2956 
Q 1356 3278 1631 3431 
Q 1906 3584 2284 3584 
Q 2666 3584 2933 3390 
Q 3200 3197 3328 2828 
z
" transform="scale(0.015625)"/>
       <path id="DejaVuSans-74" d="M 1172 4494 
L 1172 3500 
L 2356 3500 
L 2356 3053 
L 1172 3053 
L 1172 1153 
Q 1172 725 1289 603 
Q 1406 481 1766 481 
L 2356 481 
L 2356 0 
L 1766 0 
Q 1100 0 847 248 
Q 594 497 594 1153 
L 594 3053 
L 172 3053 
L 172 3500 
L 594 3500 
L 594 4494 
L 1172 4494 
z
" transform="scale(0.015625)"/>
      </defs>
      <use xlink:href="#DejaVuSans-70"/>
      <use xlink:href="#DejaVuSans-65" x="63.476562"/>
      <use xlink:href="#DejaVuSans-72" x="125"/>
      <use xlink:href="#DejaVuSans-69" x="166.113281"/>
      <use xlink:href="#DejaVuSans-6d" x="193.896484"/>
      <use xlink:href="#DejaVuSans-65" x="291.308594"/>
      <use xlink:href="#DejaVuSans-74" x="352.832031"/>
      <use xlink:href="#DejaVuSans-65" x="392.041016"/>
      <use xlink:href="#DejaVuSans-72" x="453.564453"/>
     </g>
    </g>
   </g>
   <g id="matplotlib.axis_2">
    <g id="ytick_1">
     <g id="line2d_7">
      <path d="M 48.77425 299.350909 
L 336.179705 299.350909 
" clip-path="url(#pf52f159fad)" style="fill: none; stroke: #cbcbcb"/>
     </g>
     <g id="line2d_8"/>
     <g id="text_5">
      <!-- 0 -->
      <g transform="translate(36.36675 304.669815) scale(0.14 -0.14)">
       <use xlink:href="#DejaVuSans-30"/>
      </g>
     </g>
    </g>
    <g id="ytick_2">
     <g id="line2d_9">
      <path d="M 48.77425 236.8253 
L 336.179705 236.8253 
" clip-path="url(#pf52f159fad)" style="fill: none; stroke: #cbcbcb"/>
     </g>
     <g id="line2d_10"/>
     <g id="text_6">
      <!-- 20 -->
      <g transform="translate(27.45925 242.144206) scale(0.14 -0.14)">
       <defs>
        <path id="DejaVuSans-32" d="M 1228 531 
L 3431 531 
L 3431 0 
L 469 0 
L 469 531 
Q 828 903 1448 1529 
Q 2069 2156 2228 2338 
Q 2531 2678 2651 2914 
Q 2772 3150 2772 3378 
Q 2772 3750 2511 3984 
Q 2250 4219 1831 4219 
Q 1534 4219 1204 4116 
Q 875 4013 500 3803 
L 500 4441 
Q 881 4594 1212 4672 
Q 1544 4750 1819 4750 
Q 2544 4750 2975 4387 
Q 3406 4025 3406 3419 
Q 3406 3131 3298 2873 
Q 3191 2616 2906 2266 
Q 2828 2175 2409 1742 
Q 1991 1309 1228 531 
z
" transform="scale(0.015625)"/>
       </defs>
       <use xlink:href="#DejaVuSans-32"/>
       <use xlink:href="#DejaVuSans-30" x="63.623047"/>
      </g>
     </g>
    </g>
    <g id="ytick_3">
     <g id="line2d_11">
      <path d="M 48.77425 174.299691 
L 336.179705 174.299691 
" clip-path="url(#pf52f159fad)" style="fill: none; stroke: #cbcbcb"/>
     </g>
     <g id="line2d_12"/>
     <g id="text_7">
      <!-- 40 -->
      <g transform="translate(27.45925 179.618597) scale(0.14 -0.14)">
       <defs>
        <path id="DejaVuSans-34" d="M 2419 4116 
L 825 1625 
L 2419 1625 
L 2419 4116 
z
M 2253 4666 
L 3047 4666 
L 3047 1625 
L 3713 1625 
L 3713 1100 
L 3047 1100 
L 3047 0 
L 2419 0 
L 2419 1100 
L 313 1100 
L 313 1709 
L 2253 4666 
z
" transform="scale(0.015625)"/>
       </defs>
       <use xlink:href="#DejaVuSans-34"/>
       <use xlink:href="#DejaVuSans-30" x="63.623047"/>
      </g>
     </g>
    </g>
    <g id="ytick_4">
     <g id="line2d_13">
      <path d="M 48.77425 111.774081 
L 336.179705 111.774081 
" clip-path="url(#pf52f159fad)" style="fill: none; stroke: #cbcbcb"/>
     </g>
     <g id="line2d_14"/>
     <g id="text_8">
      <!-- 60 -->
      <g transform="translate(27.45925 117.092988) scale(0.14 -0.14)">
       <defs>
        <path id="DejaVuSans-36" d="M 2113 2584 
Q 1688 2584 1439 2293 
Q 1191 2003 1191 1497 
Q 1191 994 1439 701 
Q 1688 409 2113 409 
Q 2538 409 2786 701 
Q 3034 994 3034 1497 
Q 3034 2003 2786 2293 
Q 2538 2584 2113 2584 
z
M 3366 4563 
L 3366 3988 
Q 3128 4100 2886 4159 
Q 2644 4219 2406 4219 
Q 1781 4219 1451 3797 
Q 1122 3375 1075 2522 
Q 1259 2794 1537 2939 
Q 1816 3084 2150 3084 
Q 2853 3084 3261 2657 
Q 3669 2231 3669 1497 
Q 3669 778 3244 343 
Q 2819 -91 2113 -91 
Q 1303 -91 875 529 
Q 447 1150 447 2328 
Q 447 3434 972 4092 
Q 1497 4750 2381 4750 
Q 2619 4750 2861 4703 
Q 3103 4656 3366 4563 
z
" transform="scale(0.015625)"/>
       </defs>
       <use xlink:href="#DejaVuSans-36"/>
       <use xlink:href="#DejaVuSans-30" x="63.623047"/>
      </g>
     </g>
    </g>
    <g id="ytick_5">
     <g id="line2d_15">
      <path d="M 48.77425 49.248472 
L 336.179705 49.248472 
" clip-path="url(#pf52f159fad)" style="fill: none; stroke: #cbcbcb"/>
     </g>
     <g id="line2d_16"/>
     <g id="text_9">
      <!-- 80 -->
      <g transform="translate(27.45925 54.567378) scale(0.14 -0.14)">
       <defs>
        <path id="DejaVuSans-38" d="M 2034 2216 
Q 1584 2216 1326 1975 
Q 1069 1734 1069 1313 
Q 1069 891 1326 650 
Q 1584 409 2034 409 
Q 2484 409 2743 651 
Q 3003 894 3003 1313 
Q 3003 1734 2745 1975 
Q 2488 2216 2034 2216 
z
M 1403 2484 
Q 997 2584 770 2862 
Q 544 3141 544 3541 
Q 544 4100 942 4425 
Q 1341 4750 2034 4750 
Q 2731 4750 3128 4425 
Q 3525 4100 3525 3541 
Q 3525 3141 3298 2862 
Q 3072 2584 2669 2484 
Q 3125 2378 3379 2068 
Q 3634 1759 3634 1313 
Q 3634 634 3220 271 
Q 2806 -91 2034 -91 
Q 1263 -91 848 271 
Q 434 634 434 1313 
Q 434 1759 690 2068 
Q 947 2378 1403 2484 
z
M 1172 3481 
Q 1172 3119 1398 2916 
Q 1625 2713 2034 2713 
Q 2441 2713 2670 2916 
Q 2900 3119 2900 3481 
Q 2900 3844 2670 4047 
Q 2441 4250 2034 4250 
Q 1625 4250 1398 4047 
Q 1172 3844 1172 3481 
z
" transform="scale(0.015625)"/>
       </defs>
       <use xlink:href="#DejaVuSans-38"/>
       <use xlink:href="#DejaVuSans-30" x="63.623047"/>
      </g>
     </g>
    </g>
    <g id="text_10">
     <!-- Count -->
     <g transform="translate(19.965375 178.22083) rotate(-90) scale(0.168 -0.168)">
      <defs>
       <path id="DejaVuSans-43" d="M 4122 4306 
L 4122 3641 
Q 3803 3938 3442 4084 
Q 3081 4231 2675 4231 
Q 1875 4231 1450 3742 
Q 1025 3253 1025 2328 
Q 1025 1406 1450 917 
Q 1875 428 2675 428 
Q 3081 428 3442 575 
Q 3803 722 4122 1019 
L 4122 359 
Q 3791 134 3420 21 
Q 3050 -91 2638 -91 
Q 1578 -91 968 557 
Q 359 1206 359 2328 
Q 359 3453 968 4101 
Q 1578 4750 2638 4750 
Q 3056 4750 3426 4639 
Q 3797 4528 4122 4306 
z
" transform="scale(0.015625)"/>
       <path id="DejaVuSans-6f" d="M 1959 3097 
Q 1497 3097 1228 2736 
Q 959 2375 959 1747 
Q 959 1119 1226 758 
Q 1494 397 1959 397 
Q 2419 397 2687 759 
Q 2956 1122 2956 1747 
Q 2956 2369 2687 2733 
Q 2419 3097 1959 3097 
z
M 1959 3584 
Q 2709 3584 3137 3096 
Q 3566 2609 3566 1747 
Q 3566 888 3137 398 
Q 2709 -91 1959 -91 
Q 1206 -91 779 398 
Q 353 888 353 1747 
Q 353 2609 779 3096 
Q 1206 3584 1959 3584 
z
" transform="scale(0.015625)"/>
       <path id="DejaVuSans-75" d="M 544 1381 
L 544 3500 
L 1119 3500 
L 1119 1403 
Q 1119 906 1312 657 
Q 1506 409 1894 409 
Q 2359 409 2629 706 
Q 2900 1003 2900 1516 
L 2900 3500 
L 3475 3500 
L 3475 0 
L 2900 0 
L 2900 538 
Q 2691 219 2414 64 
Q 2138 -91 1772 -91 
Q 1169 -91 856 284 
Q 544 659 544 1381 
z
M 1991 3584 
L 1991 3584 
z
" transform="scale(0.015625)"/>
       <path id="DejaVuSans-6e" d="M 3513 2113 
L 3513 0 
L 2938 0 
L 2938 2094 
Q 2938 2591 2744 2837 
Q 2550 3084 2163 3084 
Q 1697 3084 1428 2787 
Q 1159 2491 1159 1978 
L 1159 0 
L 581 0 
L 581 3500 
L 1159 3500 
L 1159 2956 
Q 1366 3272 1645 3428 
Q 1925 3584 2291 3584 
Q 2894 3584 3203 3211 
Q 3513 2838 3513 2113 
z
" transform="scale(0.015625)"/>
      </defs>
      <use xlink:href="#DejaVuSans-43"/>
      <use xlink:href="#DejaVuSans-6f" x="69.824219"/>
      <use xlink:href="#DejaVuSans-75" x="131.005859"/>
      <use xlink:href="#DejaVuSans-6e" x="194.384766"/>
      <use xlink:href="#DejaVuSans-74" x="257.763672"/>
     </g>
    </g>
   </g>
   <g id="patch_3">
    <path d="M 61.838134 299.350909 
L 74.279929 299.350909 
L 74.279929 286.845787 
L 61.838134 286.845787 
z
" clip-path="url(#pf52f159fad)" style="fill: #008fd5; fill-opacity: 0.5; stroke: #f0f0f0; stroke-width: 0.5; stroke-linejoin: miter"/>
   </g>
   <g id="patch_4">
    <path d="M 74.279929 299.350909 
L 86.721723 299.350909 
L 86.721723 264.961824 
L 74.279929 264.961824 
z
" clip-path="url(#pf52f159fad)" style="fill: #008fd5; fill-opacity: 0.5; stroke: #f0f0f0; stroke-width: 0.5; stroke-linejoin: miter"/>
   </g>
   <g id="patch_5">
    <path d="M 86.721723 299.350909 
L 99.163518 299.350909 
L 99.163518 193.057373 
L 86.721723 193.057373 
z
" clip-path="url(#pf52f159fad)" style="fill: #008fd5; fill-opacity: 0.5; stroke: #f0f0f0; stroke-width: 0.5; stroke-linejoin: miter"/>
   </g>
   <g id="patch_6">
    <path d="M 99.163518 299.350909 
L 111.605313 299.350909 
L 111.605313 155.542008 
L 99.163518 155.542008 
z
" clip-path="url(#pf52f159fad)" style="fill: #008fd5; fill-opacity: 0.5; stroke: #f0f0f0; stroke-width: 0.5; stroke-linejoin: miter"/>
   </g>
   <g id="patch_7">
    <path d="M 111.605313 299.350909 
L 124.047107 299.350909 
L 124.047107 21.111948 
L 111.605313 21.111948 
z
" clip-path="url(#pf52f159fad)" style="fill: #008fd5; fill-opacity: 0.5; stroke: #f0f0f0; stroke-width: 0.5; stroke-linejoin: miter"/>
   </g>
   <g id="patch_8">
    <path d="M 124.047107 299.350909 
L 136.488902 299.350909 
L 136.488902 30.490789 
L 124.047107 30.490789 
z
" clip-path="url(#pf52f159fad)" style="fill: #008fd5; fill-opacity: 0.5; stroke: #f0f0f0; stroke-width: 0.5; stroke-linejoin: miter"/>
   </g>
   <g id="patch_9">
    <path d="M 136.488902 299.350909 
L 148.930696 299.350909 
L 148.930696 71.132435 
L 136.488902 71.132435 
z
" clip-path="url(#pf52f159fad)" style="fill: #008fd5; fill-opacity: 0.5; stroke: #f0f0f0; stroke-width: 0.5; stroke-linejoin: miter"/>
   </g>
   <g id="patch_10">
    <path d="M 148.930696 299.350909 
L 161.372491 299.350909 
L 161.372491 114.900362 
L 148.930696 114.900362 
z
" clip-path="url(#pf52f159fad)" style="fill: #008fd5; fill-opacity: 0.5; stroke: #f0f0f0; stroke-width: 0.5; stroke-linejoin: miter"/>
   </g>
   <g id="patch_11">
    <path d="M 161.372491 299.350909 
L 173.814285 299.350909 
L 173.814285 205.562495 
L 161.372491 205.562495 
z
" clip-path="url(#pf52f159fad)" style="fill: #008fd5; fill-opacity: 0.5; stroke: #f0f0f0; stroke-width: 0.5; stroke-linejoin: miter"/>
   </g>
   <g id="patch_12">
    <path d="M 173.814285 299.350909 
L 186.25608 299.350909 
L 186.25608 221.193898 
L 173.814285 221.193898 
z
" clip-path="url(#pf52f159fad)" style="fill: #008fd5; fill-opacity: 0.5; stroke: #f0f0f0; stroke-width: 0.5; stroke-linejoin: miter"/>
   </g>
   <g id="patch_13">
    <path d="M 186.25608 299.350909 
L 198.697875 299.350909 
L 198.697875 227.446458 
L 186.25608 227.446458 
z
" clip-path="url(#pf52f159fad)" style="fill: #008fd5; fill-opacity: 0.5; stroke: #f0f0f0; stroke-width: 0.5; stroke-linejoin: miter"/>
   </g>
   <g id="patch_14">
    <path d="M 198.697875 299.350909 
L 211.139669 299.350909 
L 211.139669 230.572739 
L 198.697875 230.572739 
z
" clip-path="url(#pf52f159fad)" style="fill: #008fd5; fill-opacity: 0.5; stroke: #f0f0f0; stroke-width: 0.5; stroke-linejoin: miter"/>
   </g>
   <g id="patch_15">
    <path d="M 211.139669 299.350909 
L 223.581464 299.350909 
L 223.581464 214.941337 
L 211.139669 214.941337 
z
" clip-path="url(#pf52f159fad)" style="fill: #008fd5; fill-opacity: 0.5; stroke: #f0f0f0; stroke-width: 0.5; stroke-linejoin: miter"/>
   </g>
   <g id="patch_16">
    <path d="M 223.581464 299.350909 
L 236.023258 299.350909 
L 236.023258 243.077861 
L 223.581464 243.077861 
z
" clip-path="url(#pf52f159fad)" style="fill: #008fd5; fill-opacity: 0.5; stroke: #f0f0f0; stroke-width: 0.5; stroke-linejoin: miter"/>
   </g>
   <g id="patch_17">
    <path d="M 236.023258 299.350909 
L 248.465053 299.350909 
L 248.465053 277.466946 
L 236.023258 277.466946 
z
" clip-path="url(#pf52f159fad)" style="fill: #008fd5; fill-opacity: 0.5; stroke: #f0f0f0; stroke-width: 0.5; stroke-linejoin: miter"/>
   </g>
   <g id="patch_18">
    <path d="M 248.465053 299.350909 
L 260.906847 299.350909 
L 260.906847 280.593226 
L 248.465053 280.593226 
z
" clip-path="url(#pf52f159fad)" style="fill: #008fd5; fill-opacity: 0.5; stroke: #f0f0f0; stroke-width: 0.5; stroke-linejoin: miter"/>
   </g>
   <g id="patch_19">
    <path d="M 260.906847 299.350909 
L 273.348642 299.350909 
L 273.348642 293.098348 
L 260.906847 293.098348 
z
" clip-path="url(#pf52f159fad)" style="fill: #008fd5; fill-opacity: 0.5; stroke: #f0f0f0; stroke-width: 0.5; stroke-linejoin: miter"/>
   </g>
   <g id="patch_20">
    <path d="M 273.348642 299.350909 
L 285.790437 299.350909 
L 285.790437 293.098348 
L 273.348642 293.098348 
z
" clip-path="url(#pf52f159fad)" style="fill: #008fd5; fill-opacity: 0.5; stroke: #f0f0f0; stroke-width: 0.5; stroke-linejoin: miter"/>
   </g>
   <g id="patch_21">
    <path d="M 285.790437 299.350909 
L 298.232231 299.350909 
L 298.232231 293.098348 
L 285.790437 293.098348 
z
" clip-path="url(#pf52f159fad)" style="fill: #008fd5; fill-opacity: 0.5; stroke: #f0f0f0; stroke-width: 0.5; stroke-linejoin: miter"/>
   </g>
   <g id="patch_22">
    <path d="M 298.232231 299.350909 
L 310.674026 299.350909 
L 310.674026 299.350909 
L 298.232231 299.350909 
z
" clip-path="url(#pf52f159fad)" style="fill: #008fd5; fill-opacity: 0.5; stroke: #f0f0f0; stroke-width: 0.5; stroke-linejoin: miter"/>
   </g>
   <g id="patch_23">
    <path d="M 310.674026 299.350909 
L 323.11582 299.350909 
L 323.11582 289.972068 
L 310.674026 289.972068 
z
" clip-path="url(#pf52f159fad)" style="fill: #008fd5; fill-opacity: 0.5; stroke: #f0f0f0; stroke-width: 0.5; stroke-linejoin: miter"/>
   </g>
   <g id="line2d_17">
    <path d="M 61.838134 288.891677 
L 64.464041 285.744349 
L 67.089947 281.889184 
L 69.715853 277.232665 
L 72.34176 271.696532 
L 74.967666 265.230021 
L 77.593573 257.819213 
L 80.219479 249.489467 
L 82.845385 240.298144 
L 85.471292 230.317768 
L 88.097198 219.613692 
L 90.723105 208.22384 
L 93.349011 196.149568 
L 95.974917 183.364794 
L 99.913777 162.813542 
L 103.852637 140.780155 
L 111.730356 95.740869 
L 114.356262 82.12003 
L 116.982169 70.094409 
L 118.295122 64.832184 
L 119.608075 60.138144 
L 120.921028 56.052656 
L 122.233981 52.606949 
L 123.546934 49.822953 
L 124.859888 47.713475 
L 126.172841 46.282664 
L 127.485794 45.526662 
L 128.798747 45.434363 
L 130.1117 45.988225 
L 131.424654 47.165063 
L 132.737607 48.936791 
L 134.05056 51.271111 
L 135.363513 54.132132 
L 136.676466 57.480956 
L 137.98942 61.276251 
L 140.615326 70.032197 
L 143.241232 80.04297 
L 145.867139 90.951625 
L 151.118952 114.148321 
L 156.370764 137.382498 
L 160.309624 153.847325 
L 162.93553 164.079809 
L 165.561437 173.579029 
L 168.187343 182.256387 
L 170.81325 190.054336 
L 173.439156 196.949276 
L 176.065062 202.950496 
L 178.690969 208.094751 
L 181.316875 212.437891 
L 183.942782 216.045844 
L 186.568688 218.986989 
L 189.194594 221.327142 
L 191.820501 223.127581 
L 194.446407 224.4462 
L 197.072313 225.341765 
L 199.69822 225.88102 
L 202.324126 226.14765 
L 210.201845 226.555216 
L 212.827752 227.109816 
L 214.140705 227.568406 
L 215.453658 228.175773 
L 216.766611 228.949589 
L 218.079565 229.903926 
L 219.392518 231.048546 
L 220.705471 232.388366 
L 222.018424 233.923127 
L 224.644331 237.550206 
L 227.270237 241.826331 
L 229.896143 246.582457 
L 239.086816 263.959405 
L 241.712722 268.357545 
L 244.338629 272.284356 
L 246.964535 275.704582 
L 249.590441 278.628869 
L 252.216348 281.102435 
L 254.842254 283.191281 
L 257.46816 284.96794 
L 260.094067 286.498863 
L 262.719973 287.835477 
L 266.658833 289.542452 
L 270.597692 290.924691 
L 274.536552 291.98815 
L 278.475412 292.755056 
L 282.414271 293.289343 
L 288.979037 293.908416 
L 300.795616 294.786714 
L 307.360382 295.038758 
L 317.864007 295.359871 
L 321.802867 295.697642 
L 323.11582 295.849686 
L 323.11582 295.849686 
" clip-path="url(#pf52f159fad)" style="fill: none; stroke: #008fd5; stroke-width: 4"/>
   </g>
   <g id="patch_24">
    <path d="M 48.77425 299.350909 
L 48.77425 7.2 
" style="fill: none; stroke: #f0f0f0; stroke-width: 3; stroke-linejoin: miter; stroke-linecap: square"/>
   </g>
   <g id="patch_25">
    <path d="M 48.77425 299.350909 
L 336.179705 299.350909 
" style="fill: none; stroke: #f0f0f0; stroke-width: 3; stroke-linejoin: miter; stroke-linecap: square"/>
   </g>
  </g>
 </g>
 <defs>
  <clipPath id="pf52f159fad">
   <rect x="48.77425" y="7.2" width="287.405455" height="292.150909"/>
  </clipPath>
 </defs>
</svg>
