<?xml version="1.0" encoding="utf-8" standalone="no"?>
<!DOCTYPE svg PUBLIC "-//W3C//DTD SVG 1.1//EN"
  "http://www.w3.org/Graphics/SVG/1.1/DTD/svg11.dtd">
<svg xmlns:xlink="http://www.w3.org/1999/xlink" width="343.379705pt" height="343.859534pt" viewBox="0 0 343.379705 343.859534" xmlns="http://www.w3.org/2000/svg" version="1.1">
 <metadata>
  <rdf:RDF xmlns:dc="http://purl.org/dc/elements/1.1/" xmlns:cc="http://creativecommons.org/ns#" xmlns:rdf="http://www.w3.org/1999/02/22-rdf-syntax-ns#">
   <cc:Work>
    <dc:type rdf:resource="http://purl.org/dc/dcmitype/StillImage"/>
    <dc:date>2022-10-14T19:33:59.672283</dc:date>
    <dc:format>image/svg+xml</dc:format>
    <dc:creator>
     <cc:Agent>
      <dc:title>Matplotlib v3.6.1, https://matplotlib.org/</dc:title>
     </cc:Agent>
    </dc:creator>
   </cc:Work>
  </rdf:RDF>
 </metadata>
 <defs>
  <style type="text/css">*{stroke-linejoin: round; stroke-linecap: butt}</style>
 </defs>
 <g id="figure_1">
  <g id="patch_1">
   <path d="M 0 343.859534 
L 343.379705 343.859534 
L 343.379705 0 
L 0 0 
z
" style="fill: #f0f0f0"/>
  </g>
  <g id="axes_1">
   <g id="patch_2">
    <path d="M 48.77425 299.350909 
L 336.179705 299.350909 
L 336.179705 7.2 
L 48.77425 7.2 
z
" style="fill: #f0f0f0"/>
   </g>
   <g id="matplotlib.axis_1">
    <g id="xtick_1">
     <g id="line2d_1">
      <path d="M 99.170584 299.350909 
L 99.170584 7.2 
" clip-path="url(#p9ad4424aff)" style="fill: none; stroke: #cbcbcb"/>
     </g>
     <g id="line2d_2"/>
     <g id="text_1">
      <!-- 10 -->
      <g transform="translate(90.263084 313.488722) scale(0.14 -0.14)">
       <defs>
        <path id="DejaVuSans-31" d="M 794 531 
L 1825 531 
L 1825 4091 
L 703 3866 
L 703 4441 
L 1819 4666 
L 2450 4666 
L 2450 531 
L 3481 531 
L 3481 0 
L 794 0 
L 794 531 
z
" transform="scale(0.015625)"/>
        <path id="DejaVuSans-30" d="M 2034 4250 
Q 1547 4250 1301 3770 
Q 1056 3291 1056 2328 
Q 1056 1369 1301 889 
Q 1547 409 2034 409 
Q 2525 409 2770 889 
Q 3016 1369 3016 2328 
Q 3016 3291 2770 3770 
Q 2525 4250 2034 4250 
z
M 2034 4750 
Q 2819 4750 3233 4129 
Q 3647 3509 3647 2328 
Q 3647 1150 3233 529 
Q 2819 -91 2034 -91 
Q 1250 -91 836 529 
Q 422 1150 422 2328 
Q 422 3509 836 4129 
Q 1250 4750 2034 4750 
z
" transform="scale(0.015625)"/>
       </defs>
       <use xlink:href="#DejaVuSans-31"/>
       <use xlink:href="#DejaVuSans-30" x="63.623047"/>
      </g>
     </g>
    </g>
    <g id="xtick_2">
     <g id="line2d_3">
      <path d="M 160.999749 299.350909 
L 160.999749 7.2 
" clip-path="url(#p9ad4424aff)" style="fill: none; stroke: #cbcbcb"/>
     </g>
     <g id="line2d_4"/>
     <g id="text_2">
      <!-- 15 -->
      <g transform="translate(152.092249 313.488722) scale(0.14 -0.14)">
       <defs>
        <path id="DejaVuSans-35" d="M 691 4666 
L 3169 4666 
L 3169 4134 
L 1269 4134 
L 1269 2991 
Q 1406 3038 1543 3061 
Q 1681 3084 1819 3084 
Q 2600 3084 3056 2656 
Q 3513 2228 3513 1497 
Q 3513 744 3044 326 
Q 2575 -91 1722 -91 
Q 1428 -91 1123 -41 
Q 819 9 494 109 
L 494 744 
Q 775 591 1075 516 
Q 1375 441 1709 441 
Q 2250 441 2565 725 
Q 2881 1009 2881 1497 
Q 2881 1984 2565 2268 
Q 2250 2553 1709 2553 
Q 1456 2553 1204 2497 
Q 953 2441 691 2322 
L 691 4666 
z
" transform="scale(0.015625)"/>
       </defs>
       <use xlink:href="#DejaVuSans-31"/>
       <use xlink:href="#DejaVuSans-35" x="63.623047"/>
      </g>
     </g>
    </g>
    <g id="xtick_3">
     <g id="line2d_5">
      <path d="M 222.828914 299.350909 
L 222.828914 7.2 
" clip-path="url(#p9ad4424aff)" style="fill: none; stroke: #cbcbcb"/>
     </g>
     <g id="line2d_6"/>
     <g id="text_3">
      <!-- 20 -->
      <g transform="translate(213.921414 313.488722) scale(0.14 -0.14)">
       <defs>
        <path id="DejaVuSans-32" d="M 1228 531 
L 3431 531 
L 3431 0 
L 469 0 
L 469 531 
Q 828 903 1448 1529 
Q 2069 2156 2228 2338 
Q 2531 2678 2651 2914 
Q 2772 3150 2772 3378 
Q 2772 3750 2511 3984 
Q 2250 4219 1831 4219 
Q 1534 4219 1204 4116 
Q 875 4013 500 3803 
L 500 4441 
Q 881 4594 1212 4672 
Q 1544 4750 1819 4750 
Q 2544 4750 2975 4387 
Q 3406 4025 3406 3419 
Q 3406 3131 3298 2873 
Q 3191 2616 2906 2266 
Q 2828 2175 2409 1742 
Q 1991 1309 1228 531 
z
" transform="scale(0.015625)"/>
       </defs>
       <use xlink:href="#DejaVuSans-32"/>
       <use xlink:href="#DejaVuSans-30" x="63.623047"/>
      </g>
     </g>
    </g>
    <g id="xtick_4">
     <g id="line2d_7">
      <path d="M 284.65808 299.350909 
L 284.65808 7.2 
" clip-path="url(#p9ad4424aff)" style="fill: none; stroke: #cbcbcb"/>
     </g>
     <g id="line2d_8"/>
     <g id="text_4">
      <!-- 25 -->
      <g transform="translate(275.75058 313.488722) scale(0.14 -0.14)">
       <use xlink:href="#DejaVuSans-32"/>
       <use xlink:href="#DejaVuSans-35" x="63.623047"/>
      </g>
     </g>
    </g>
    <g id="text_5">
     <!-- radius -->
     <g transform="translate(166.510477 333.165659) scale(0.168 -0.168)">
      <defs>
       <path id="DejaVuSans-72" d="M 2631 2963 
Q 2534 3019 2420 3045 
Q 2306 3072 2169 3072 
Q 1681 3072 1420 2755 
Q 1159 2438 1159 1844 
L 1159 0 
L 581 0 
L 581 3500 
L 1159 3500 
L 1159 2956 
Q 1341 3275 1631 3429 
Q 1922 3584 2338 3584 
Q 2397 3584 2469 3576 
Q 2541 3569 2628 3553 
L 2631 2963 
z
" transform="scale(0.015625)"/>
       <path id="DejaVuSans-61" d="M 2194 1759 
Q 1497 1759 1228 1600 
Q 959 1441 959 1056 
Q 959 750 1161 570 
Q 1363 391 1709 391 
Q 2188 391 2477 730 
Q 2766 1069 2766 1631 
L 2766 1759 
L 2194 1759 
z
M 3341 1997 
L 3341 0 
L 2766 0 
L 2766 531 
Q 2569 213 2275 61 
Q 1981 -91 1556 -91 
Q 1019 -91 701 211 
Q 384 513 384 1019 
Q 384 1609 779 1909 
Q 1175 2209 1959 2209 
L 2766 2209 
L 2766 2266 
Q 2766 2663 2505 2880 
Q 2244 3097 1772 3097 
Q 1472 3097 1187 3025 
Q 903 2953 641 2809 
L 641 3341 
Q 956 3463 1253 3523 
Q 1550 3584 1831 3584 
Q 2591 3584 2966 3190 
Q 3341 2797 3341 1997 
z
" transform="scale(0.015625)"/>
       <path id="DejaVuSans-64" d="M 2906 2969 
L 2906 4863 
L 3481 4863 
L 3481 0 
L 2906 0 
L 2906 525 
Q 2725 213 2448 61 
Q 2172 -91 1784 -91 
Q 1150 -91 751 415 
Q 353 922 353 1747 
Q 353 2572 751 3078 
Q 1150 3584 1784 3584 
Q 2172 3584 2448 3432 
Q 2725 3281 2906 2969 
z
M 947 1747 
Q 947 1113 1208 752 
Q 1469 391 1925 391 
Q 2381 391 2643 752 
Q 2906 1113 2906 1747 
Q 2906 2381 2643 2742 
Q 2381 3103 1925 3103 
Q 1469 3103 1208 2742 
Q 947 2381 947 1747 
z
" transform="scale(0.015625)"/>
       <path id="DejaVuSans-69" d="M 603 3500 
L 1178 3500 
L 1178 0 
L 603 0 
L 603 3500 
z
M 603 4863 
L 1178 4863 
L 1178 4134 
L 603 4134 
L 603 4863 
z
" transform="scale(0.015625)"/>
       <path id="DejaVuSans-75" d="M 544 1381 
L 544 3500 
L 1119 3500 
L 1119 1403 
Q 1119 906 1312 657 
Q 1506 409 1894 409 
Q 2359 409 2629 706 
Q 2900 1003 2900 1516 
L 2900 3500 
L 3475 3500 
L 3475 0 
L 2900 0 
L 2900 538 
Q 2691 219 2414 64 
Q 2138 -91 1772 -91 
Q 1169 -91 856 284 
Q 544 659 544 1381 
z
M 1991 3584 
L 1991 3584 
z
" transform="scale(0.015625)"/>
       <path id="DejaVuSans-73" d="M 2834 3397 
L 2834 2853 
Q 2591 2978 2328 3040 
Q 2066 3103 1784 3103 
Q 1356 3103 1142 2972 
Q 928 2841 928 2578 
Q 928 2378 1081 2264 
Q 1234 2150 1697 2047 
L 1894 2003 
Q 2506 1872 2764 1633 
Q 3022 1394 3022 966 
Q 3022 478 2636 193 
Q 2250 -91 1575 -91 
Q 1294 -91 989 -36 
Q 684 19 347 128 
L 347 722 
Q 666 556 975 473 
Q 1284 391 1588 391 
Q 1994 391 2212 530 
Q 2431 669 2431 922 
Q 2431 1156 2273 1281 
Q 2116 1406 1581 1522 
L 1381 1569 
Q 847 1681 609 1914 
Q 372 2147 372 2553 
Q 372 3047 722 3315 
Q 1072 3584 1716 3584 
Q 2034 3584 2315 3537 
Q 2597 3491 2834 3397 
z
" transform="scale(0.015625)"/>
      </defs>
      <use xlink:href="#DejaVuSans-72"/>
      <use xlink:href="#DejaVuSans-61" x="41.113281"/>
      <use xlink:href="#DejaVuSans-64" x="102.392578"/>
      <use xlink:href="#DejaVuSans-69" x="165.869141"/>
      <use xlink:href="#DejaVuSans-75" x="193.652344"/>
      <use xlink:href="#DejaVuSans-73" x="257.03125"/>
     </g>
    </g>
   </g>
   <g id="matplotlib.axis_2">
    <g id="ytick_1">
     <g id="line2d_9">
      <path d="M 48.77425 299.350909 
L 336.179705 299.350909 
" clip-path="url(#p9ad4424aff)" style="fill: none; stroke: #cbcbcb"/>
     </g>
     <g id="line2d_10"/>
     <g id="text_6">
      <!-- 0 -->
      <g transform="translate(36.36675 304.669815) scale(0.14 -0.14)">
       <use xlink:href="#DejaVuSans-30"/>
      </g>
     </g>
    </g>
    <g id="ytick_2">
     <g id="line2d_11">
      <path d="M 48.77425 234.644174 
L 336.179705 234.644174 
" clip-path="url(#p9ad4424aff)" style="fill: none; stroke: #cbcbcb"/>
     </g>
     <g id="line2d_12"/>
     <g id="text_7">
      <!-- 20 -->
      <g transform="translate(27.45925 239.96308) scale(0.14 -0.14)">
       <use xlink:href="#DejaVuSans-32"/>
       <use xlink:href="#DejaVuSans-30" x="63.623047"/>
      </g>
     </g>
    </g>
    <g id="ytick_3">
     <g id="line2d_13">
      <path d="M 48.77425 169.937439 
L 336.179705 169.937439 
" clip-path="url(#p9ad4424aff)" style="fill: none; stroke: #cbcbcb"/>
     </g>
     <g id="line2d_14"/>
     <g id="text_8">
      <!-- 40 -->
      <g transform="translate(27.45925 175.256345) scale(0.14 -0.14)">
       <defs>
        <path id="DejaVuSans-34" d="M 2419 4116 
L 825 1625 
L 2419 1625 
L 2419 4116 
z
M 2253 4666 
L 3047 4666 
L 3047 1625 
L 3713 1625 
L 3713 1100 
L 3047 1100 
L 3047 0 
L 2419 0 
L 2419 1100 
L 313 1100 
L 313 1709 
L 2253 4666 
z
" transform="scale(0.015625)"/>
       </defs>
       <use xlink:href="#DejaVuSans-34"/>
       <use xlink:href="#DejaVuSans-30" x="63.623047"/>
      </g>
     </g>
    </g>
    <g id="ytick_4">
     <g id="line2d_15">
      <path d="M 48.77425 105.230704 
L 336.179705 105.230704 
" clip-path="url(#p9ad4424aff)" style="fill: none; stroke: #cbcbcb"/>
     </g>
     <g id="line2d_16"/>
     <g id="text_9">
      <!-- 60 -->
      <g transform="translate(27.45925 110.54961) scale(0.14 -0.14)">
       <defs>
        <path id="DejaVuSans-36" d="M 2113 2584 
Q 1688 2584 1439 2293 
Q 1191 2003 1191 1497 
Q 1191 994 1439 701 
Q 1688 409 2113 409 
Q 2538 409 2786 701 
Q 3034 994 3034 1497 
Q 3034 2003 2786 2293 
Q 2538 2584 2113 2584 
z
M 3366 4563 
L 3366 3988 
Q 3128 4100 2886 4159 
Q 2644 4219 2406 4219 
Q 1781 4219 1451 3797 
Q 1122 3375 1075 2522 
Q 1259 2794 1537 2939 
Q 1816 3084 2150 3084 
Q 2853 3084 3261 2657 
Q 3669 2231 3669 1497 
Q 3669 778 3244 343 
Q 2819 -91 2113 -91 
Q 1303 -91 875 529 
Q 447 1150 447 2328 
Q 447 3434 972 4092 
Q 1497 4750 2381 4750 
Q 2619 4750 2861 4703 
Q 3103 4656 3366 4563 
z
" transform="scale(0.015625)"/>
       </defs>
       <use xlink:href="#DejaVuSans-36"/>
       <use xlink:href="#DejaVuSans-30" x="63.623047"/>
      </g>
     </g>
    </g>
    <g id="ytick_5">
     <g id="line2d_17">
      <path d="M 48.77425 40.523969 
L 336.179705 40.523969 
" clip-path="url(#p9ad4424aff)" style="fill: none; stroke: #cbcbcb"/>
     </g>
     <g id="line2d_18"/>
     <g id="text_10">
      <!-- 80 -->
      <g transform="translate(27.45925 45.842875) scale(0.14 -0.14)">
       <defs>
        <path id="DejaVuSans-38" d="M 2034 2216 
Q 1584 2216 1326 1975 
Q 1069 1734 1069 1313 
Q 1069 891 1326 650 
Q 1584 409 2034 409 
Q 2484 409 2743 651 
Q 3003 894 3003 1313 
Q 3003 1734 2745 1975 
Q 2488 2216 2034 2216 
z
M 1403 2484 
Q 997 2584 770 2862 
Q 544 3141 544 3541 
Q 544 4100 942 4425 
Q 1341 4750 2034 4750 
Q 2731 4750 3128 4425 
Q 3525 4100 3525 3541 
Q 3525 3141 3298 2862 
Q 3072 2584 2669 2484 
Q 3125 2378 3379 2068 
Q 3634 1759 3634 1313 
Q 3634 634 3220 271 
Q 2806 -91 2034 -91 
Q 1263 -91 848 271 
Q 434 634 434 1313 
Q 434 1759 690 2068 
Q 947 2378 1403 2484 
z
M 1172 3481 
Q 1172 3119 1398 2916 
Q 1625 2713 2034 2713 
Q 2441 2713 2670 2916 
Q 2900 3119 2900 3481 
Q 2900 3844 2670 4047 
Q 2441 4250 2034 4250 
Q 1625 4250 1398 4047 
Q 1172 3844 1172 3481 
z
" transform="scale(0.015625)"/>
       </defs>
       <use xlink:href="#DejaVuSans-38"/>
       <use xlink:href="#DejaVuSans-30" x="63.623047"/>
      </g>
     </g>
    </g>
    <g id="text_11">
     <!-- Count -->
     <g transform="translate(19.965375 178.22083) rotate(-90) scale(0.168 -0.168)">
      <defs>
       <path id="DejaVuSans-43" d="M 4122 4306 
L 4122 3641 
Q 3803 3938 3442 4084 
Q 3081 4231 2675 4231 
Q 1875 4231 1450 3742 
Q 1025 3253 1025 2328 
Q 1025 1406 1450 917 
Q 1875 428 2675 428 
Q 3081 428 3442 575 
Q 3803 722 4122 1019 
L 4122 359 
Q 3791 134 3420 21 
Q 3050 -91 2638 -91 
Q 1578 -91 968 557 
Q 359 1206 359 2328 
Q 359 3453 968 4101 
Q 1578 4750 2638 4750 
Q 3056 4750 3426 4639 
Q 3797 4528 4122 4306 
z
" transform="scale(0.015625)"/>
       <path id="DejaVuSans-6f" d="M 1959 3097 
Q 1497 3097 1228 2736 
Q 959 2375 959 1747 
Q 959 1119 1226 758 
Q 1494 397 1959 397 
Q 2419 397 2687 759 
Q 2956 1122 2956 1747 
Q 2956 2369 2687 2733 
Q 2419 3097 1959 3097 
z
M 1959 3584 
Q 2709 3584 3137 3096 
Q 3566 2609 3566 1747 
Q 3566 888 3137 398 
Q 2709 -91 1959 -91 
Q 1206 -91 779 398 
Q 353 888 353 1747 
Q 353 2609 779 3096 
Q 1206 3584 1959 3584 
z
" transform="scale(0.015625)"/>
       <path id="DejaVuSans-6e" d="M 3513 2113 
L 3513 0 
L 2938 0 
L 2938 2094 
Q 2938 2591 2744 2837 
Q 2550 3084 2163 3084 
Q 1697 3084 1428 2787 
Q 1159 2491 1159 1978 
L 1159 0 
L 581 0 
L 581 3500 
L 1159 3500 
L 1159 2956 
Q 1366 3272 1645 3428 
Q 1925 3584 2291 3584 
Q 2894 3584 3203 3211 
Q 3513 2838 3513 2113 
z
" transform="scale(0.015625)"/>
       <path id="DejaVuSans-74" d="M 1172 4494 
L 1172 3500 
L 2356 3500 
L 2356 3053 
L 1172 3053 
L 1172 1153 
Q 1172 725 1289 603 
Q 1406 481 1766 481 
L 2356 481 
L 2356 0 
L 1766 0 
Q 1100 0 847 248 
Q 594 497 594 1153 
L 594 3053 
L 172 3053 
L 172 3500 
L 594 3500 
L 594 4494 
L 1172 4494 
z
" transform="scale(0.015625)"/>
      </defs>
      <use xlink:href="#DejaVuSans-43"/>
      <use xlink:href="#DejaVuSans-6f" x="69.824219"/>
      <use xlink:href="#DejaVuSans-75" x="131.005859"/>
      <use xlink:href="#DejaVuSans-6e" x="194.384766"/>
      <use xlink:href="#DejaVuSans-74" x="257.763672"/>
     </g>
    </g>
   </g>
   <g id="patch_3">
    <path d="M 61.838134 299.350909 
L 73.714393 299.350909 
L 73.714393 286.409562 
L 61.838134 286.409562 
z
" clip-path="url(#p9ad4424aff)" style="fill: #008fd5; fill-opacity: 0.5; stroke: #f0f0f0; stroke-width: 0.5; stroke-linejoin: miter"/>
   </g>
   <g id="patch_4">
    <path d="M 73.714393 299.350909 
L 85.590651 299.350909 
L 85.590651 263.762205 
L 73.714393 263.762205 
z
" clip-path="url(#p9ad4424aff)" style="fill: #008fd5; fill-opacity: 0.5; stroke: #f0f0f0; stroke-width: 0.5; stroke-linejoin: miter"/>
   </g>
   <g id="patch_5">
    <path d="M 85.590651 299.350909 
L 97.46691 299.350909 
L 97.46691 205.526143 
L 85.590651 205.526143 
z
" clip-path="url(#p9ad4424aff)" style="fill: #008fd5; fill-opacity: 0.5; stroke: #f0f0f0; stroke-width: 0.5; stroke-linejoin: miter"/>
   </g>
   <g id="patch_6">
    <path d="M 97.46691 299.350909 
L 109.343168 299.350909 
L 109.343168 192.584796 
L 97.46691 192.584796 
z
" clip-path="url(#p9ad4424aff)" style="fill: #008fd5; fill-opacity: 0.5; stroke: #f0f0f0; stroke-width: 0.5; stroke-linejoin: miter"/>
   </g>
   <g id="patch_7">
    <path d="M 109.343168 299.350909 
L 121.219427 299.350909 
L 121.219427 56.700652 
L 109.343168 56.700652 
z
" clip-path="url(#p9ad4424aff)" style="fill: #008fd5; fill-opacity: 0.5; stroke: #f0f0f0; stroke-width: 0.5; stroke-linejoin: miter"/>
   </g>
   <g id="patch_8">
    <path d="M 121.219427 299.350909 
L 133.095685 299.350909 
L 133.095685 53.465316 
L 121.219427 53.465316 
z
" clip-path="url(#p9ad4424aff)" style="fill: #008fd5; fill-opacity: 0.5; stroke: #f0f0f0; stroke-width: 0.5; stroke-linejoin: miter"/>
   </g>
   <g id="patch_9">
    <path d="M 133.095685 299.350909 
L 144.971943 299.350909 
L 144.971943 21.111948 
L 133.095685 21.111948 
z
" clip-path="url(#p9ad4424aff)" style="fill: #008fd5; fill-opacity: 0.5; stroke: #f0f0f0; stroke-width: 0.5; stroke-linejoin: miter"/>
   </g>
   <g id="patch_10">
    <path d="M 144.971943 299.350909 
L 156.848202 299.350909 
L 156.848202 105.230704 
L 144.971943 105.230704 
z
" clip-path="url(#p9ad4424aff)" style="fill: #008fd5; fill-opacity: 0.5; stroke: #f0f0f0; stroke-width: 0.5; stroke-linejoin: miter"/>
   </g>
   <g id="patch_11">
    <path d="M 156.848202 299.350909 
L 168.72446 299.350909 
L 168.72446 153.760755 
L 156.848202 153.760755 
z
" clip-path="url(#p9ad4424aff)" style="fill: #008fd5; fill-opacity: 0.5; stroke: #f0f0f0; stroke-width: 0.5; stroke-linejoin: miter"/>
   </g>
   <g id="patch_12">
    <path d="M 168.72446 299.350909 
L 180.600719 299.350909 
L 180.600719 215.232153 
L 168.72446 215.232153 
z
" clip-path="url(#p9ad4424aff)" style="fill: #008fd5; fill-opacity: 0.5; stroke: #f0f0f0; stroke-width: 0.5; stroke-linejoin: miter"/>
   </g>
   <g id="patch_13">
    <path d="M 180.600719 299.350909 
L 192.476977 299.350909 
L 192.476977 228.1735 
L 180.600719 228.1735 
z
" clip-path="url(#p9ad4424aff)" style="fill: #008fd5; fill-opacity: 0.5; stroke: #f0f0f0; stroke-width: 0.5; stroke-linejoin: miter"/>
   </g>
   <g id="patch_14">
    <path d="M 192.476977 299.350909 
L 204.353236 299.350909 
L 204.353236 228.1735 
L 192.476977 228.1735 
z
" clip-path="url(#p9ad4424aff)" style="fill: #008fd5; fill-opacity: 0.5; stroke: #f0f0f0; stroke-width: 0.5; stroke-linejoin: miter"/>
   </g>
   <g id="patch_15">
    <path d="M 204.353236 299.350909 
L 216.229494 299.350909 
L 216.229494 228.1735 
L 204.353236 228.1735 
z
" clip-path="url(#p9ad4424aff)" style="fill: #008fd5; fill-opacity: 0.5; stroke: #f0f0f0; stroke-width: 0.5; stroke-linejoin: miter"/>
   </g>
   <g id="patch_16">
    <path d="M 216.229494 299.350909 
L 228.105753 299.350909 
L 228.105753 224.938164 
L 216.229494 224.938164 
z
" clip-path="url(#p9ad4424aff)" style="fill: #008fd5; fill-opacity: 0.5; stroke: #f0f0f0; stroke-width: 0.5; stroke-linejoin: miter"/>
   </g>
   <g id="patch_17">
    <path d="M 228.105753 299.350909 
L 239.982011 299.350909 
L 239.982011 244.350184 
L 228.105753 244.350184 
z
" clip-path="url(#p9ad4424aff)" style="fill: #008fd5; fill-opacity: 0.5; stroke: #f0f0f0; stroke-width: 0.5; stroke-linejoin: miter"/>
   </g>
   <g id="patch_18">
    <path d="M 239.982011 299.350909 
L 251.85827 299.350909 
L 251.85827 279.938889 
L 239.982011 279.938889 
z
" clip-path="url(#p9ad4424aff)" style="fill: #008fd5; fill-opacity: 0.5; stroke: #f0f0f0; stroke-width: 0.5; stroke-linejoin: miter"/>
   </g>
   <g id="patch_19">
    <path d="M 251.85827 299.350909 
L 263.734528 299.350909 
L 263.734528 286.409562 
L 251.85827 286.409562 
z
" clip-path="url(#p9ad4424aff)" style="fill: #008fd5; fill-opacity: 0.5; stroke: #f0f0f0; stroke-width: 0.5; stroke-linejoin: miter"/>
   </g>
   <g id="patch_20">
    <path d="M 263.734528 299.350909 
L 275.610786 299.350909 
L 275.610786 292.880236 
L 263.734528 292.880236 
z
" clip-path="url(#p9ad4424aff)" style="fill: #008fd5; fill-opacity: 0.5; stroke: #f0f0f0; stroke-width: 0.5; stroke-linejoin: miter"/>
   </g>
   <g id="patch_21">
    <path d="M 275.610786 299.350909 
L 287.487045 299.350909 
L 287.487045 292.880236 
L 275.610786 292.880236 
z
" clip-path="url(#p9ad4424aff)" style="fill: #008fd5; fill-opacity: 0.5; stroke: #f0f0f0; stroke-width: 0.5; stroke-linejoin: miter"/>
   </g>
   <g id="patch_22">
    <path d="M 287.487045 299.350909 
L 299.363303 299.350909 
L 299.363303 296.115572 
L 287.487045 296.115572 
z
" clip-path="url(#p9ad4424aff)" style="fill: #008fd5; fill-opacity: 0.5; stroke: #f0f0f0; stroke-width: 0.5; stroke-linejoin: miter"/>
   </g>
   <g id="patch_23">
    <path d="M 299.363303 299.350909 
L 311.239562 299.350909 
L 311.239562 299.350909 
L 299.363303 299.350909 
z
" clip-path="url(#p9ad4424aff)" style="fill: #008fd5; fill-opacity: 0.5; stroke: #f0f0f0; stroke-width: 0.5; stroke-linejoin: miter"/>
   </g>
   <g id="patch_24">
    <path d="M 311.239562 299.350909 
L 323.11582 299.350909 
L 323.11582 289.644899 
L 311.239562 289.644899 
z
" clip-path="url(#p9ad4424aff)" style="fill: #008fd5; fill-opacity: 0.5; stroke: #f0f0f0; stroke-width: 0.5; stroke-linejoin: miter"/>
   </g>
   <g id="line2d_19">
    <path d="M 61.838134 289.642604 
L 64.464041 286.633703 
L 67.089947 282.955225 
L 69.715853 278.537112 
L 72.34176 273.328372 
L 74.967666 267.305233 
L 77.593573 260.475973 
L 80.219479 252.879709 
L 82.845385 244.577365 
L 85.471292 235.635112 
L 88.097198 226.10346 
L 90.723105 215.998023 
L 93.349011 205.289615 
L 95.974917 193.910577 
L 98.600824 181.780493 
L 101.22673 168.848357 
L 105.16559 148.038569 
L 114.356262 97.550643 
L 116.982169 84.684785 
L 119.608075 73.449607 
L 120.921028 68.574513 
L 122.233981 64.248722 
L 123.546934 60.50211 
L 124.859888 57.35576 
L 126.172841 54.822284 
L 127.485794 52.906425 
L 128.798747 51.605827 
L 130.1117 50.911918 
L 131.424654 50.8108 
L 132.737607 51.284105 
L 134.05056 52.309761 
L 135.363513 53.862672 
L 136.676466 55.915284 
L 137.98942 58.43808 
L 139.302373 61.400015 
L 140.615326 64.76892 
L 141.928279 68.511898 
L 144.554186 76.987269 
L 147.180092 86.563719 
L 149.805998 96.99207 
L 153.744858 113.740112 
L 166.87439 171.238853 
L 169.500296 181.547645 
L 172.126203 190.969406 
L 174.752109 199.332058 
L 177.378016 206.517928 
L 178.690969 209.651076 
L 180.003922 212.476746 
L 181.316875 214.999648 
L 182.629828 217.228466 
L 183.942782 219.175397 
L 185.255735 220.855584 
L 186.568688 222.286477 
L 187.881641 223.487162 
L 189.194594 224.4777 
L 190.507547 225.278506 
L 191.820501 225.909814 
L 193.133454 226.391236 
L 195.75936 226.978073 
L 198.385267 227.175272 
L 201.011173 227.103375 
L 210.201845 226.391322 
L 212.827752 226.587332 
L 214.140705 226.842428 
L 215.453658 227.226679 
L 216.766611 227.757108 
L 218.079565 228.448978 
L 219.392518 229.315198 
L 220.705471 230.365755 
L 222.018424 231.607221 
L 223.331377 233.042347 
L 224.644331 234.669782 
L 227.270237 238.474905 
L 229.896143 242.927792 
L 232.52205 247.873958 
L 243.025675 268.434823 
L 245.651582 272.781502 
L 248.277488 276.546879 
L 250.903394 279.695626 
L 253.529301 282.247554 
L 256.155207 284.267091 
L 258.781114 285.847986 
L 261.40702 287.095855 
L 264.032926 288.111629 
L 267.971786 289.376378 
L 274.536552 291.165844 
L 281.101318 292.710871 
L 286.353131 293.748608 
L 291.604944 294.580959 
L 296.856756 295.153241 
L 300.795616 295.378744 
L 306.047429 295.441325 
L 315.238101 295.484998 
L 319.176961 295.740544 
L 323.11582 296.191442 
L 323.11582 296.191442 
" clip-path="url(#p9ad4424aff)" style="fill: none; stroke: #008fd5; stroke-width: 4"/>
   </g>
   <g id="patch_25">
    <path d="M 48.77425 299.350909 
L 48.77425 7.2 
" style="fill: none; stroke: #f0f0f0; stroke-width: 3; stroke-linejoin: miter; stroke-linecap: square"/>
   </g>
   <g id="patch_26">
    <path d="M 48.77425 299.350909 
L 336.179705 299.350909 
" style="fill: none; stroke: #f0f0f0; stroke-width: 3; stroke-linejoin: miter; stroke-linecap: square"/>
   </g>
  </g>
 </g>
 <defs>
  <clipPath id="p9ad4424aff">
   <rect x="48.77425" y="7.2" width="287.405455" height="292.150909"/>
  </clipPath>
 </defs>
</svg>
