<?xml version="1.0" encoding="utf-8" standalone="no"?>
<!DOCTYPE svg PUBLIC "-//W3C//DTD SVG 1.1//EN"
  "http://www.w3.org/Graphics/SVG/1.1/DTD/svg11.dtd">
<svg xmlns:xlink="http://www.w3.org/1999/xlink" width="344.445524pt" height="343.871821pt" viewBox="0 0 344.445524 343.871821" xmlns="http://www.w3.org/2000/svg" version="1.1">
 <metadata>
  <rdf:RDF xmlns:dc="http://purl.org/dc/elements/1.1/" xmlns:cc="http://creativecommons.org/ns#" xmlns:rdf="http://www.w3.org/1999/02/22-rdf-syntax-ns#">
   <cc:Work>
    <dc:type rdf:resource="http://purl.org/dc/dcmitype/StillImage"/>
    <dc:date>2022-10-14T19:34:00.250585</dc:date>
    <dc:format>image/svg+xml</dc:format>
    <dc:creator>
     <cc:Agent>
      <dc:title>Matplotlib v3.6.1, https://matplotlib.org/</dc:title>
     </cc:Agent>
    </dc:creator>
   </cc:Work>
  </rdf:RDF>
 </metadata>
 <defs>
  <style type="text/css">*{stroke-linejoin: round; stroke-linecap: butt}</style>
 </defs>
 <g id="figure_1">
  <g id="patch_1">
   <path d="M 0 343.871821 
L 344.445524 343.871821 
L 344.445524 0 
L 0 0 
z
" style="fill: #f0f0f0"/>
  </g>
  <g id="axes_1">
   <g id="patch_2">
    <path d="M 57.68175 299.363196 
L 332.005572 299.363196 
L 332.005572 7.212287 
L 57.68175 7.212287 
z
" style="fill: #f0f0f0"/>
   </g>
   <g id="matplotlib.axis_1">
    <g id="xtick_1">
     <g id="line2d_1">
      <path d="M 107.862937 299.363196 
L 107.862937 7.212287 
" clip-path="url(#p63fb645178)" style="fill: none; stroke: #cbcbcb"/>
     </g>
     <g id="line2d_2"/>
     <g id="text_1">
      <!-- 500 -->
      <g transform="translate(94.501687 313.501008) scale(0.14 -0.14)">
       <defs>
        <path id="DejaVuSans-35" d="M 691 4666 
L 3169 4666 
L 3169 4134 
L 1269 4134 
L 1269 2991 
Q 1406 3038 1543 3061 
Q 1681 3084 1819 3084 
Q 2600 3084 3056 2656 
Q 3513 2228 3513 1497 
Q 3513 744 3044 326 
Q 2575 -91 1722 -91 
Q 1428 -91 1123 -41 
Q 819 9 494 109 
L 494 744 
Q 775 591 1075 516 
Q 1375 441 1709 441 
Q 2250 441 2565 725 
Q 2881 1009 2881 1497 
Q 2881 1984 2565 2268 
Q 2250 2553 1709 2553 
Q 1456 2553 1204 2497 
Q 953 2441 691 2322 
L 691 4666 
z
" transform="scale(0.015625)"/>
        <path id="DejaVuSans-30" d="M 2034 4250 
Q 1547 4250 1301 3770 
Q 1056 3291 1056 2328 
Q 1056 1369 1301 889 
Q 1547 409 2034 409 
Q 2525 409 2770 889 
Q 3016 1369 3016 2328 
Q 3016 3291 2770 3770 
Q 2525 4250 2034 4250 
z
M 2034 4750 
Q 2819 4750 3233 4129 
Q 3647 3509 3647 2328 
Q 3647 1150 3233 529 
Q 2819 -91 2034 -91 
Q 1250 -91 836 529 
Q 422 1150 422 2328 
Q 422 3509 836 4129 
Q 1250 4750 2034 4750 
z
" transform="scale(0.015625)"/>
       </defs>
       <use xlink:href="#DejaVuSans-35"/>
       <use xlink:href="#DejaVuSans-30" x="63.623047"/>
       <use xlink:href="#DejaVuSans-30" x="127.246094"/>
      </g>
     </g>
    </g>
    <g id="xtick_2">
     <g id="line2d_3">
      <path d="M 160.754834 299.363196 
L 160.754834 7.212287 
" clip-path="url(#p63fb645178)" style="fill: none; stroke: #cbcbcb"/>
     </g>
     <g id="line2d_4"/>
     <g id="text_2">
      <!-- 1000 -->
      <g transform="translate(142.939834 313.501008) scale(0.14 -0.14)">
       <defs>
        <path id="DejaVuSans-31" d="M 794 531 
L 1825 531 
L 1825 4091 
L 703 3866 
L 703 4441 
L 1819 4666 
L 2450 4666 
L 2450 531 
L 3481 531 
L 3481 0 
L 794 0 
L 794 531 
z
" transform="scale(0.015625)"/>
       </defs>
       <use xlink:href="#DejaVuSans-31"/>
       <use xlink:href="#DejaVuSans-30" x="63.623047"/>
       <use xlink:href="#DejaVuSans-30" x="127.246094"/>
       <use xlink:href="#DejaVuSans-30" x="190.869141"/>
      </g>
     </g>
    </g>
    <g id="xtick_3">
     <g id="line2d_5">
      <path d="M 213.64673 299.363196 
L 213.64673 7.212287 
" clip-path="url(#p63fb645178)" style="fill: none; stroke: #cbcbcb"/>
     </g>
     <g id="line2d_6"/>
     <g id="text_3">
      <!-- 1500 -->
      <g transform="translate(195.83173 313.501008) scale(0.14 -0.14)">
       <use xlink:href="#DejaVuSans-31"/>
       <use xlink:href="#DejaVuSans-35" x="63.623047"/>
       <use xlink:href="#DejaVuSans-30" x="127.246094"/>
       <use xlink:href="#DejaVuSans-30" x="190.869141"/>
      </g>
     </g>
    </g>
    <g id="xtick_4">
     <g id="line2d_7">
      <path d="M 266.538627 299.363196 
L 266.538627 7.212287 
" clip-path="url(#p63fb645178)" style="fill: none; stroke: #cbcbcb"/>
     </g>
     <g id="line2d_8"/>
     <g id="text_4">
      <!-- 2000 -->
      <g transform="translate(248.723627 313.501008) scale(0.14 -0.14)">
       <defs>
        <path id="DejaVuSans-32" d="M 1228 531 
L 3431 531 
L 3431 0 
L 469 0 
L 469 531 
Q 828 903 1448 1529 
Q 2069 2156 2228 2338 
Q 2531 2678 2651 2914 
Q 2772 3150 2772 3378 
Q 2772 3750 2511 3984 
Q 2250 4219 1831 4219 
Q 1534 4219 1204 4116 
Q 875 4013 500 3803 
L 500 4441 
Q 881 4594 1212 4672 
Q 1544 4750 1819 4750 
Q 2544 4750 2975 4387 
Q 3406 4025 3406 3419 
Q 3406 3131 3298 2873 
Q 3191 2616 2906 2266 
Q 2828 2175 2409 1742 
Q 1991 1309 1228 531 
z
" transform="scale(0.015625)"/>
       </defs>
       <use xlink:href="#DejaVuSans-32"/>
       <use xlink:href="#DejaVuSans-30" x="63.623047"/>
       <use xlink:href="#DejaVuSans-30" x="127.246094"/>
       <use xlink:href="#DejaVuSans-30" x="190.869141"/>
      </g>
     </g>
    </g>
    <g id="xtick_5">
     <g id="line2d_9">
      <path d="M 319.430524 299.363196 
L 319.430524 7.212287 
" clip-path="url(#p63fb645178)" style="fill: none; stroke: #cbcbcb"/>
     </g>
     <g id="line2d_10"/>
     <g id="text_5">
      <!-- 2500 -->
      <g transform="translate(301.615524 313.501008) scale(0.14 -0.14)">
       <use xlink:href="#DejaVuSans-32"/>
       <use xlink:href="#DejaVuSans-35" x="63.623047"/>
       <use xlink:href="#DejaVuSans-30" x="127.246094"/>
       <use xlink:href="#DejaVuSans-30" x="190.869141"/>
      </g>
     </g>
    </g>
    <g id="text_6">
     <!-- area -->
     <g transform="translate(176.115599 333.177946) scale(0.168 -0.168)">
      <defs>
       <path id="DejaVuSans-61" d="M 2194 1759 
Q 1497 1759 1228 1600 
Q 959 1441 959 1056 
Q 959 750 1161 570 
Q 1363 391 1709 391 
Q 2188 391 2477 730 
Q 2766 1069 2766 1631 
L 2766 1759 
L 2194 1759 
z
M 3341 1997 
L 3341 0 
L 2766 0 
L 2766 531 
Q 2569 213 2275 61 
Q 1981 -91 1556 -91 
Q 1019 -91 701 211 
Q 384 513 384 1019 
Q 384 1609 779 1909 
Q 1175 2209 1959 2209 
L 2766 2209 
L 2766 2266 
Q 2766 2663 2505 2880 
Q 2244 3097 1772 3097 
Q 1472 3097 1187 3025 
Q 903 2953 641 2809 
L 641 3341 
Q 956 3463 1253 3523 
Q 1550 3584 1831 3584 
Q 2591 3584 2966 3190 
Q 3341 2797 3341 1997 
z
" transform="scale(0.015625)"/>
       <path id="DejaVuSans-72" d="M 2631 2963 
Q 2534 3019 2420 3045 
Q 2306 3072 2169 3072 
Q 1681 3072 1420 2755 
Q 1159 2438 1159 1844 
L 1159 0 
L 581 0 
L 581 3500 
L 1159 3500 
L 1159 2956 
Q 1341 3275 1631 3429 
Q 1922 3584 2338 3584 
Q 2397 3584 2469 3576 
Q 2541 3569 2628 3553 
L 2631 2963 
z
" transform="scale(0.015625)"/>
       <path id="DejaVuSans-65" d="M 3597 1894 
L 3597 1613 
L 953 1613 
Q 991 1019 1311 708 
Q 1631 397 2203 397 
Q 2534 397 2845 478 
Q 3156 559 3463 722 
L 3463 178 
Q 3153 47 2828 -22 
Q 2503 -91 2169 -91 
Q 1331 -91 842 396 
Q 353 884 353 1716 
Q 353 2575 817 3079 
Q 1281 3584 2069 3584 
Q 2775 3584 3186 3129 
Q 3597 2675 3597 1894 
z
M 3022 2063 
Q 3016 2534 2758 2815 
Q 2500 3097 2075 3097 
Q 1594 3097 1305 2825 
Q 1016 2553 972 2059 
L 3022 2063 
z
" transform="scale(0.015625)"/>
      </defs>
      <use xlink:href="#DejaVuSans-61"/>
      <use xlink:href="#DejaVuSans-72" x="61.279297"/>
      <use xlink:href="#DejaVuSans-65" x="100.142578"/>
      <use xlink:href="#DejaVuSans-61" x="161.666016"/>
     </g>
    </g>
   </g>
   <g id="matplotlib.axis_2">
    <g id="ytick_1">
     <g id="line2d_11">
      <path d="M 57.68175 299.363196 
L 332.005572 299.363196 
" clip-path="url(#p63fb645178)" style="fill: none; stroke: #cbcbcb"/>
     </g>
     <g id="line2d_12"/>
     <g id="text_7">
      <!-- 0 -->
      <g transform="translate(45.27425 304.682102) scale(0.14 -0.14)">
       <use xlink:href="#DejaVuSans-30"/>
      </g>
     </g>
    </g>
    <g id="ytick_2">
     <g id="line2d_13">
      <path d="M 57.68175 241.994338 
L 332.005572 241.994338 
" clip-path="url(#p63fb645178)" style="fill: none; stroke: #cbcbcb"/>
     </g>
     <g id="line2d_14"/>
     <g id="text_8">
      <!-- 20 -->
      <g transform="translate(36.36675 247.313244) scale(0.14 -0.14)">
       <use xlink:href="#DejaVuSans-32"/>
       <use xlink:href="#DejaVuSans-30" x="63.623047"/>
      </g>
     </g>
    </g>
    <g id="ytick_3">
     <g id="line2d_15">
      <path d="M 57.68175 184.62548 
L 332.005572 184.62548 
" clip-path="url(#p63fb645178)" style="fill: none; stroke: #cbcbcb"/>
     </g>
     <g id="line2d_16"/>
     <g id="text_9">
      <!-- 40 -->
      <g transform="translate(36.36675 189.944386) scale(0.14 -0.14)">
       <defs>
        <path id="DejaVuSans-34" d="M 2419 4116 
L 825 1625 
L 2419 1625 
L 2419 4116 
z
M 2253 4666 
L 3047 4666 
L 3047 1625 
L 3713 1625 
L 3713 1100 
L 3047 1100 
L 3047 0 
L 2419 0 
L 2419 1100 
L 313 1100 
L 313 1709 
L 2253 4666 
z
" transform="scale(0.015625)"/>
       </defs>
       <use xlink:href="#DejaVuSans-34"/>
       <use xlink:href="#DejaVuSans-30" x="63.623047"/>
      </g>
     </g>
    </g>
    <g id="ytick_4">
     <g id="line2d_17">
      <path d="M 57.68175 127.256622 
L 332.005572 127.256622 
" clip-path="url(#p63fb645178)" style="fill: none; stroke: #cbcbcb"/>
     </g>
     <g id="line2d_18"/>
     <g id="text_10">
      <!-- 60 -->
      <g transform="translate(36.36675 132.575528) scale(0.14 -0.14)">
       <defs>
        <path id="DejaVuSans-36" d="M 2113 2584 
Q 1688 2584 1439 2293 
Q 1191 2003 1191 1497 
Q 1191 994 1439 701 
Q 1688 409 2113 409 
Q 2538 409 2786 701 
Q 3034 994 3034 1497 
Q 3034 2003 2786 2293 
Q 2538 2584 2113 2584 
z
M 3366 4563 
L 3366 3988 
Q 3128 4100 2886 4159 
Q 2644 4219 2406 4219 
Q 1781 4219 1451 3797 
Q 1122 3375 1075 2522 
Q 1259 2794 1537 2939 
Q 1816 3084 2150 3084 
Q 2853 3084 3261 2657 
Q 3669 2231 3669 1497 
Q 3669 778 3244 343 
Q 2819 -91 2113 -91 
Q 1303 -91 875 529 
Q 447 1150 447 2328 
Q 447 3434 972 4092 
Q 1497 4750 2381 4750 
Q 2619 4750 2861 4703 
Q 3103 4656 3366 4563 
z
" transform="scale(0.015625)"/>
       </defs>
       <use xlink:href="#DejaVuSans-36"/>
       <use xlink:href="#DejaVuSans-30" x="63.623047"/>
      </g>
     </g>
    </g>
    <g id="ytick_5">
     <g id="line2d_19">
      <path d="M 57.68175 69.887764 
L 332.005572 69.887764 
" clip-path="url(#p63fb645178)" style="fill: none; stroke: #cbcbcb"/>
     </g>
     <g id="line2d_20"/>
     <g id="text_11">
      <!-- 80 -->
      <g transform="translate(36.36675 75.20667) scale(0.14 -0.14)">
       <defs>
        <path id="DejaVuSans-38" d="M 2034 2216 
Q 1584 2216 1326 1975 
Q 1069 1734 1069 1313 
Q 1069 891 1326 650 
Q 1584 409 2034 409 
Q 2484 409 2743 651 
Q 3003 894 3003 1313 
Q 3003 1734 2745 1975 
Q 2488 2216 2034 2216 
z
M 1403 2484 
Q 997 2584 770 2862 
Q 544 3141 544 3541 
Q 544 4100 942 4425 
Q 1341 4750 2034 4750 
Q 2731 4750 3128 4425 
Q 3525 4100 3525 3541 
Q 3525 3141 3298 2862 
Q 3072 2584 2669 2484 
Q 3125 2378 3379 2068 
Q 3634 1759 3634 1313 
Q 3634 634 3220 271 
Q 2806 -91 2034 -91 
Q 1263 -91 848 271 
Q 434 634 434 1313 
Q 434 1759 690 2068 
Q 947 2378 1403 2484 
z
M 1172 3481 
Q 1172 3119 1398 2916 
Q 1625 2713 2034 2713 
Q 2441 2713 2670 2916 
Q 2900 3119 2900 3481 
Q 2900 3844 2670 4047 
Q 2441 4250 2034 4250 
Q 1625 4250 1398 4047 
Q 1172 3844 1172 3481 
z
" transform="scale(0.015625)"/>
       </defs>
       <use xlink:href="#DejaVuSans-38"/>
       <use xlink:href="#DejaVuSans-30" x="63.623047"/>
      </g>
     </g>
    </g>
    <g id="ytick_6">
     <g id="line2d_21">
      <path d="M 57.68175 12.518906 
L 332.005572 12.518906 
" clip-path="url(#p63fb645178)" style="fill: none; stroke: #cbcbcb"/>
     </g>
     <g id="line2d_22"/>
     <g id="text_12">
      <!-- 100 -->
      <g transform="translate(27.45925 17.837812) scale(0.14 -0.14)">
       <use xlink:href="#DejaVuSans-31"/>
       <use xlink:href="#DejaVuSans-30" x="63.623047"/>
       <use xlink:href="#DejaVuSans-30" x="127.246094"/>
      </g>
     </g>
    </g>
    <g id="text_13">
     <!-- Count -->
     <g transform="translate(19.965375 178.233116) rotate(-90) scale(0.168 -0.168)">
      <defs>
       <path id="DejaVuSans-43" d="M 4122 4306 
L 4122 3641 
Q 3803 3938 3442 4084 
Q 3081 4231 2675 4231 
Q 1875 4231 1450 3742 
Q 1025 3253 1025 2328 
Q 1025 1406 1450 917 
Q 1875 428 2675 428 
Q 3081 428 3442 575 
Q 3803 722 4122 1019 
L 4122 359 
Q 3791 134 3420 21 
Q 3050 -91 2638 -91 
Q 1578 -91 968 557 
Q 359 1206 359 2328 
Q 359 3453 968 4101 
Q 1578 4750 2638 4750 
Q 3056 4750 3426 4639 
Q 3797 4528 4122 4306 
z
" transform="scale(0.015625)"/>
       <path id="DejaVuSans-6f" d="M 1959 3097 
Q 1497 3097 1228 2736 
Q 959 2375 959 1747 
Q 959 1119 1226 758 
Q 1494 397 1959 397 
Q 2419 397 2687 759 
Q 2956 1122 2956 1747 
Q 2956 2369 2687 2733 
Q 2419 3097 1959 3097 
z
M 1959 3584 
Q 2709 3584 3137 3096 
Q 3566 2609 3566 1747 
Q 3566 888 3137 398 
Q 2709 -91 1959 -91 
Q 1206 -91 779 398 
Q 353 888 353 1747 
Q 353 2609 779 3096 
Q 1206 3584 1959 3584 
z
" transform="scale(0.015625)"/>
       <path id="DejaVuSans-75" d="M 544 1381 
L 544 3500 
L 1119 3500 
L 1119 1403 
Q 1119 906 1312 657 
Q 1506 409 1894 409 
Q 2359 409 2629 706 
Q 2900 1003 2900 1516 
L 2900 3500 
L 3475 3500 
L 3475 0 
L 2900 0 
L 2900 538 
Q 2691 219 2414 64 
Q 2138 -91 1772 -91 
Q 1169 -91 856 284 
Q 544 659 544 1381 
z
M 1991 3584 
L 1991 3584 
z
" transform="scale(0.015625)"/>
       <path id="DejaVuSans-6e" d="M 3513 2113 
L 3513 0 
L 2938 0 
L 2938 2094 
Q 2938 2591 2744 2837 
Q 2550 3084 2163 3084 
Q 1697 3084 1428 2787 
Q 1159 2491 1159 1978 
L 1159 0 
L 581 0 
L 581 3500 
L 1159 3500 
L 1159 2956 
Q 1366 3272 1645 3428 
Q 1925 3584 2291 3584 
Q 2894 3584 3203 3211 
Q 3513 2838 3513 2113 
z
" transform="scale(0.015625)"/>
       <path id="DejaVuSans-74" d="M 1172 4494 
L 1172 3500 
L 2356 3500 
L 2356 3053 
L 1172 3053 
L 1172 1153 
Q 1172 725 1289 603 
Q 1406 481 1766 481 
L 2356 481 
L 2356 0 
L 1766 0 
Q 1100 0 847 248 
Q 594 497 594 1153 
L 594 3053 
L 172 3053 
L 172 3500 
L 594 3500 
L 594 4494 
L 1172 4494 
z
" transform="scale(0.015625)"/>
      </defs>
      <use xlink:href="#DejaVuSans-43"/>
      <use xlink:href="#DejaVuSans-6f" x="69.824219"/>
      <use xlink:href="#DejaVuSans-75" x="131.005859"/>
      <use xlink:href="#DejaVuSans-6e" x="194.384766"/>
      <use xlink:href="#DejaVuSans-74" x="257.763672"/>
     </g>
    </g>
   </g>
   <g id="patch_3">
    <path d="M 70.151015 299.363196 
L 79.387507 299.363196 
L 79.387507 267.810324 
L 70.151015 267.810324 
z
" clip-path="url(#p63fb645178)" style="fill: #008fd5; fill-opacity: 0.5; stroke: #f0f0f0; stroke-width: 0.5; stroke-linejoin: miter"/>
   </g>
   <g id="patch_4">
    <path d="M 79.387507 299.363196 
L 88.623999 299.363196 
L 88.623999 178.888594 
L 79.387507 178.888594 
z
" clip-path="url(#p63fb645178)" style="fill: #008fd5; fill-opacity: 0.5; stroke: #f0f0f0; stroke-width: 0.5; stroke-linejoin: miter"/>
   </g>
   <g id="patch_5">
    <path d="M 88.623999 299.363196 
L 97.860492 299.363196 
L 97.860492 89.966864 
L 88.623999 89.966864 
z
" clip-path="url(#p63fb645178)" style="fill: #008fd5; fill-opacity: 0.5; stroke: #f0f0f0; stroke-width: 0.5; stroke-linejoin: miter"/>
   </g>
   <g id="patch_6">
    <path d="M 97.860492 299.363196 
L 107.096984 299.363196 
L 107.096984 21.124235 
L 97.860492 21.124235 
z
" clip-path="url(#p63fb645178)" style="fill: #008fd5; fill-opacity: 0.5; stroke: #f0f0f0; stroke-width: 0.5; stroke-linejoin: miter"/>
   </g>
   <g id="patch_7">
    <path d="M 107.096984 299.363196 
L 116.333476 299.363196 
L 116.333476 32.598007 
L 107.096984 32.598007 
z
" clip-path="url(#p63fb645178)" style="fill: #008fd5; fill-opacity: 0.5; stroke: #f0f0f0; stroke-width: 0.5; stroke-linejoin: miter"/>
   </g>
   <g id="patch_8">
    <path d="M 116.333476 299.363196 
L 125.569969 299.363196 
L 125.569969 127.256622 
L 116.333476 127.256622 
z
" clip-path="url(#p63fb645178)" style="fill: #008fd5; fill-opacity: 0.5; stroke: #f0f0f0; stroke-width: 0.5; stroke-linejoin: miter"/>
   </g>
   <g id="patch_9">
    <path d="M 125.569969 299.363196 
L 134.806461 299.363196 
L 134.806461 178.888594 
L 125.569969 178.888594 
z
" clip-path="url(#p63fb645178)" style="fill: #008fd5; fill-opacity: 0.5; stroke: #f0f0f0; stroke-width: 0.5; stroke-linejoin: miter"/>
   </g>
   <g id="patch_10">
    <path d="M 134.806461 299.363196 
L 144.042953 299.363196 
L 144.042953 221.915238 
L 134.806461 221.915238 
z
" clip-path="url(#p63fb645178)" style="fill: #008fd5; fill-opacity: 0.5; stroke: #f0f0f0; stroke-width: 0.5; stroke-linejoin: miter"/>
   </g>
   <g id="patch_11">
    <path d="M 144.042953 299.363196 
L 153.279446 299.363196 
L 153.279446 256.336553 
L 144.042953 256.336553 
z
" clip-path="url(#p63fb645178)" style="fill: #008fd5; fill-opacity: 0.5; stroke: #f0f0f0; stroke-width: 0.5; stroke-linejoin: miter"/>
   </g>
   <g id="patch_12">
    <path d="M 153.279446 299.363196 
L 162.515938 299.363196 
L 162.515938 241.994338 
L 153.279446 241.994338 
z
" clip-path="url(#p63fb645178)" style="fill: #008fd5; fill-opacity: 0.5; stroke: #f0f0f0; stroke-width: 0.5; stroke-linejoin: miter"/>
   </g>
   <g id="patch_13">
    <path d="M 162.515938 299.363196 
L 171.75243 299.363196 
L 171.75243 253.46811 
L 162.515938 253.46811 
z
" clip-path="url(#p63fb645178)" style="fill: #008fd5; fill-opacity: 0.5; stroke: #f0f0f0; stroke-width: 0.5; stroke-linejoin: miter"/>
   </g>
   <g id="patch_14">
    <path d="M 171.75243 299.363196 
L 180.988923 299.363196 
L 180.988923 250.599667 
L 171.75243 250.599667 
z
" clip-path="url(#p63fb645178)" style="fill: #008fd5; fill-opacity: 0.5; stroke: #f0f0f0; stroke-width: 0.5; stroke-linejoin: miter"/>
   </g>
   <g id="patch_15">
    <path d="M 180.988923 299.363196 
L 190.225415 299.363196 
L 190.225415 241.994338 
L 180.988923 241.994338 
z
" clip-path="url(#p63fb645178)" style="fill: #008fd5; fill-opacity: 0.5; stroke: #f0f0f0; stroke-width: 0.5; stroke-linejoin: miter"/>
   </g>
   <g id="patch_16">
    <path d="M 190.225415 299.363196 
L 199.461907 299.363196 
L 199.461907 259.204995 
L 190.225415 259.204995 
z
" clip-path="url(#p63fb645178)" style="fill: #008fd5; fill-opacity: 0.5; stroke: #f0f0f0; stroke-width: 0.5; stroke-linejoin: miter"/>
   </g>
   <g id="patch_17">
    <path d="M 199.461907 299.363196 
L 208.6984 299.363196 
L 208.6984 285.020981 
L 199.461907 285.020981 
z
" clip-path="url(#p63fb645178)" style="fill: #008fd5; fill-opacity: 0.5; stroke: #f0f0f0; stroke-width: 0.5; stroke-linejoin: miter"/>
   </g>
   <g id="patch_18">
    <path d="M 208.6984 299.363196 
L 217.934892 299.363196 
L 217.934892 287.889424 
L 208.6984 287.889424 
z
" clip-path="url(#p63fb645178)" style="fill: #008fd5; fill-opacity: 0.5; stroke: #f0f0f0; stroke-width: 0.5; stroke-linejoin: miter"/>
   </g>
   <g id="patch_19">
    <path d="M 217.934892 299.363196 
L 227.171384 299.363196 
L 227.171384 296.494753 
L 217.934892 296.494753 
z
" clip-path="url(#p63fb645178)" style="fill: #008fd5; fill-opacity: 0.5; stroke: #f0f0f0; stroke-width: 0.5; stroke-linejoin: miter"/>
   </g>
   <g id="patch_20">
    <path d="M 227.171384 299.363196 
L 236.407877 299.363196 
L 236.407877 287.889424 
L 227.171384 287.889424 
z
" clip-path="url(#p63fb645178)" style="fill: #008fd5; fill-opacity: 0.5; stroke: #f0f0f0; stroke-width: 0.5; stroke-linejoin: miter"/>
   </g>
   <g id="patch_21">
    <path d="M 236.407877 299.363196 
L 245.644369 299.363196 
L 245.644369 293.62631 
L 236.407877 293.62631 
z
" clip-path="url(#p63fb645178)" style="fill: #008fd5; fill-opacity: 0.5; stroke: #f0f0f0; stroke-width: 0.5; stroke-linejoin: miter"/>
   </g>
   <g id="patch_22">
    <path d="M 245.644369 299.363196 
L 254.880861 299.363196 
L 254.880861 293.62631 
L 245.644369 293.62631 
z
" clip-path="url(#p63fb645178)" style="fill: #008fd5; fill-opacity: 0.5; stroke: #f0f0f0; stroke-width: 0.5; stroke-linejoin: miter"/>
   </g>
   <g id="patch_23">
    <path d="M 254.880861 299.363196 
L 264.117354 299.363196 
L 264.117354 299.363196 
L 254.880861 299.363196 
z
" clip-path="url(#p63fb645178)" style="fill: #008fd5; fill-opacity: 0.5; stroke: #f0f0f0; stroke-width: 0.5; stroke-linejoin: miter"/>
   </g>
   <g id="patch_24">
    <path d="M 264.117354 299.363196 
L 273.353846 299.363196 
L 273.353846 296.494753 
L 264.117354 296.494753 
z
" clip-path="url(#p63fb645178)" style="fill: #008fd5; fill-opacity: 0.5; stroke: #f0f0f0; stroke-width: 0.5; stroke-linejoin: miter"/>
   </g>
   <g id="patch_25">
    <path d="M 273.353846 299.363196 
L 282.590338 299.363196 
L 282.590338 299.363196 
L 273.353846 299.363196 
z
" clip-path="url(#p63fb645178)" style="fill: #008fd5; fill-opacity: 0.5; stroke: #f0f0f0; stroke-width: 0.5; stroke-linejoin: miter"/>
   </g>
   <g id="patch_26">
    <path d="M 282.590338 299.363196 
L 291.826831 299.363196 
L 291.826831 299.363196 
L 282.590338 299.363196 
z
" clip-path="url(#p63fb645178)" style="fill: #008fd5; fill-opacity: 0.5; stroke: #f0f0f0; stroke-width: 0.5; stroke-linejoin: miter"/>
   </g>
   <g id="patch_27">
    <path d="M 291.826831 299.363196 
L 301.063323 299.363196 
L 301.063323 296.494753 
L 291.826831 296.494753 
z
" clip-path="url(#p63fb645178)" style="fill: #008fd5; fill-opacity: 0.5; stroke: #f0f0f0; stroke-width: 0.5; stroke-linejoin: miter"/>
   </g>
   <g id="patch_28">
    <path d="M 301.063323 299.363196 
L 310.299815 299.363196 
L 310.299815 299.363196 
L 301.063323 299.363196 
z
" clip-path="url(#p63fb645178)" style="fill: #008fd5; fill-opacity: 0.5; stroke: #f0f0f0; stroke-width: 0.5; stroke-linejoin: miter"/>
   </g>
   <g id="patch_29">
    <path d="M 310.299815 299.363196 
L 319.536308 299.363196 
L 319.536308 293.62631 
L 310.299815 293.62631 
z
" clip-path="url(#p63fb645178)" style="fill: #008fd5; fill-opacity: 0.5; stroke: #f0f0f0; stroke-width: 0.5; stroke-linejoin: miter"/>
   </g>
   <g id="line2d_23">
    <path d="M 70.151015 265.605736 
L 71.404207 260.101161 
L 73.910592 247.452386 
L 76.416977 232.673752 
L 78.923362 215.943891 
L 81.429746 197.564822 
L 85.189324 167.85859 
L 91.455286 117.757827 
L 93.961671 99.749008 
L 96.468056 84.161308 
L 97.721248 77.520276 
L 98.97444 71.75998 
L 100.227633 66.948151 
L 101.480825 63.136673 
L 102.734018 60.360032 
L 103.98721 58.634489 
L 105.240403 57.958017 
L 106.493595 58.31097 
L 107.746787 59.657429 
L 108.99998 61.947097 
L 110.253172 65.117598 
L 111.506365 69.09704 
L 112.759557 73.806668 
L 114.01275 79.16346 
L 116.519134 91.479333 
L 119.025519 105.379146 
L 122.785097 127.873955 
L 129.051059 165.630702 
L 131.557444 179.670746 
L 134.063828 192.626099 
L 136.570213 204.248998 
L 139.076598 214.35807 
L 141.582983 222.854516 
L 142.836175 226.492781 
L 144.089368 229.733812 
L 145.34256 232.592012 
L 146.595753 235.087108 
L 147.848945 237.24343 
L 149.102138 239.088992 
L 150.35533 240.654405 
L 151.608522 241.971697 
L 152.861715 243.07309 
L 154.114907 243.989831 
L 156.621292 245.383336 
L 159.127677 246.348011 
L 161.634062 247.021292 
L 164.140447 247.486107 
L 167.900024 247.892021 
L 177.925563 248.594957 
L 180.431948 249.22978 
L 181.685141 249.70493 
L 182.938333 250.304759 
L 184.191525 251.041098 
L 185.444718 251.922756 
L 186.69791 252.954976 
L 189.204295 255.471822 
L 191.71068 258.550084 
L 194.217065 262.082101 
L 197.976642 267.872108 
L 201.736219 273.688565 
L 204.242604 277.298799 
L 206.748989 280.556404 
L 209.255374 283.397381 
L 211.761759 285.798875 
L 214.268144 287.765219 
L 216.774529 289.315064 
L 219.280913 290.474882 
L 221.787298 291.280006 
L 224.293683 291.78002 
L 226.800068 292.042887 
L 230.559645 292.179253 
L 235.572415 292.334306 
L 239.331992 292.689592 
L 243.09157 293.295527 
L 249.357532 294.614397 
L 255.623494 295.890899 
L 260.636264 296.712718 
L 266.902226 297.490198 
L 273.168188 298.041028 
L 278.180957 298.292135 
L 283.193727 298.348092 
L 304.497998 298.079665 
L 310.763961 297.690878 
L 317.029923 297.323958 
L 319.536308 297.303367 
L 319.536308 297.303367 
" clip-path="url(#p63fb645178)" style="fill: none; stroke: #008fd5; stroke-width: 4"/>
   </g>
   <g id="patch_30">
    <path d="M 57.68175 299.363196 
L 57.68175 7.212287 
" style="fill: none; stroke: #f0f0f0; stroke-width: 3; stroke-linejoin: miter; stroke-linecap: square"/>
   </g>
   <g id="patch_31">
    <path d="M 57.68175 299.363196 
L 332.005572 299.363196 
" style="fill: none; stroke: #f0f0f0; stroke-width: 3; stroke-linejoin: miter; stroke-linecap: square"/>
   </g>
  </g>
 </g>
 <defs>
  <clipPath id="p63fb645178">
   <rect x="57.68175" y="7.212287" width="274.323822" height="292.150909"/>
  </clipPath>
 </defs>
</svg>
