<?xml version="1.0" encoding="utf-8" standalone="no"?>
<!DOCTYPE svg PUBLIC "-//W3C//DTD SVG 1.1//EN"
  "http://www.w3.org/Graphics/SVG/1.1/DTD/svg11.dtd">
<svg xmlns:xlink="http://www.w3.org/1999/xlink" width="450.005017pt" height="363.179008pt" viewBox="0 0 450.005017 363.179008" xmlns="http://www.w3.org/2000/svg" version="1.1">
 <metadata>
  <rdf:RDF xmlns:dc="http://purl.org/dc/elements/1.1/" xmlns:cc="http://creativecommons.org/ns#" xmlns:rdf="http://www.w3.org/1999/02/22-rdf-syntax-ns#">
   <cc:Work>
    <dc:type rdf:resource="http://purl.org/dc/dcmitype/StillImage"/>
    <dc:date>2022-10-14T19:34:02.532760</dc:date>
    <dc:format>image/svg+xml</dc:format>
    <dc:creator>
     <cc:Agent>
      <dc:title>Matplotlib v3.6.1, https://matplotlib.org/</dc:title>
     </cc:Agent>
    </dc:creator>
   </cc:Work>
  </rdf:RDF>
 </metadata>
 <defs>
  <style type="text/css">*{stroke-linejoin: round; stroke-linecap: butt}</style>
 </defs>
 <g id="figure_1">
  <g id="patch_1">
   <path d="M 0 363.179008 
L 450.005017 363.179008 
L 450.005017 0 
L 0 0 
z
" style="fill: #f0f0f0"/>
  </g>
  <g id="axes_1">
   <g id="patch_2">
    <path d="M 155.399563 318.670383 
L 442.805017 318.670383 
L 442.805017 28.51845 
L 155.399563 28.51845 
z
" style="fill: #f0f0f0"/>
   </g>
   <g id="matplotlib.axis_1">
    <g id="xtick_1">
     <g id="line2d_1">
      <path d="M 155.399563 318.670383 
L 155.399563 28.51845 
" clip-path="url(#p7befc0f10a)" style="fill: none; stroke: #cbcbcb"/>
     </g>
     <g id="line2d_2"/>
     <g id="text_1">
      <!-- 0.0 -->
      <g transform="translate(144.267375 332.808196) scale(0.14 -0.14)">
       <defs>
        <path id="DejaVuSans-30" d="M 2034 4250 
Q 1547 4250 1301 3770 
Q 1056 3291 1056 2328 
Q 1056 1369 1301 889 
Q 1547 409 2034 409 
Q 2525 409 2770 889 
Q 3016 1369 3016 2328 
Q 3016 3291 2770 3770 
Q 2525 4250 2034 4250 
z
M 2034 4750 
Q 2819 4750 3233 4129 
Q 3647 3509 3647 2328 
Q 3647 1150 3233 529 
Q 2819 -91 2034 -91 
Q 1250 -91 836 529 
Q 422 1150 422 2328 
Q 422 3509 836 4129 
Q 1250 4750 2034 4750 
z
" transform="scale(0.015625)"/>
        <path id="DejaVuSans-2e" d="M 684 794 
L 1344 794 
L 1344 0 
L 684 0 
L 684 794 
z
" transform="scale(0.015625)"/>
       </defs>
       <use xlink:href="#DejaVuSans-30"/>
       <use xlink:href="#DejaVuSans-2e" x="63.623047"/>
       <use xlink:href="#DejaVuSans-30" x="95.410156"/>
      </g>
     </g>
    </g>
    <g id="xtick_2">
     <g id="line2d_3">
      <path d="M 243.616654 318.670383 
L 243.616654 28.51845 
" clip-path="url(#p7befc0f10a)" style="fill: none; stroke: #cbcbcb"/>
     </g>
     <g id="line2d_4"/>
     <g id="text_2">
      <!-- 0.1 -->
      <g transform="translate(232.484467 332.808196) scale(0.14 -0.14)">
       <defs>
        <path id="DejaVuSans-31" d="M 794 531 
L 1825 531 
L 1825 4091 
L 703 3866 
L 703 4441 
L 1819 4666 
L 2450 4666 
L 2450 531 
L 3481 531 
L 3481 0 
L 794 0 
L 794 531 
z
" transform="scale(0.015625)"/>
       </defs>
       <use xlink:href="#DejaVuSans-30"/>
       <use xlink:href="#DejaVuSans-2e" x="63.623047"/>
       <use xlink:href="#DejaVuSans-31" x="95.410156"/>
      </g>
     </g>
    </g>
    <g id="xtick_3">
     <g id="line2d_5">
      <path d="M 331.833746 318.670383 
L 331.833746 28.51845 
" clip-path="url(#p7befc0f10a)" style="fill: none; stroke: #cbcbcb"/>
     </g>
     <g id="line2d_6"/>
     <g id="text_3">
      <!-- 0.2 -->
      <g transform="translate(320.701559 332.808196) scale(0.14 -0.14)">
       <defs>
        <path id="DejaVuSans-32" d="M 1228 531 
L 3431 531 
L 3431 0 
L 469 0 
L 469 531 
Q 828 903 1448 1529 
Q 2069 2156 2228 2338 
Q 2531 2678 2651 2914 
Q 2772 3150 2772 3378 
Q 2772 3750 2511 3984 
Q 2250 4219 1831 4219 
Q 1534 4219 1204 4116 
Q 875 4013 500 3803 
L 500 4441 
Q 881 4594 1212 4672 
Q 1544 4750 1819 4750 
Q 2544 4750 2975 4387 
Q 3406 4025 3406 3419 
Q 3406 3131 3298 2873 
Q 3191 2616 2906 2266 
Q 2828 2175 2409 1742 
Q 1991 1309 1228 531 
z
" transform="scale(0.015625)"/>
       </defs>
       <use xlink:href="#DejaVuSans-30"/>
       <use xlink:href="#DejaVuSans-2e" x="63.623047"/>
       <use xlink:href="#DejaVuSans-32" x="95.410156"/>
      </g>
     </g>
    </g>
    <g id="xtick_4">
     <g id="line2d_7">
      <path d="M 420.050838 318.670383 
L 420.050838 28.51845 
" clip-path="url(#p7befc0f10a)" style="fill: none; stroke: #cbcbcb"/>
     </g>
     <g id="line2d_8"/>
     <g id="text_4">
      <!-- 0.3 -->
      <g transform="translate(408.91865 332.808196) scale(0.14 -0.14)">
       <defs>
        <path id="DejaVuSans-33" d="M 2597 2516 
Q 3050 2419 3304 2112 
Q 3559 1806 3559 1356 
Q 3559 666 3084 287 
Q 2609 -91 1734 -91 
Q 1441 -91 1130 -33 
Q 819 25 488 141 
L 488 750 
Q 750 597 1062 519 
Q 1375 441 1716 441 
Q 2309 441 2620 675 
Q 2931 909 2931 1356 
Q 2931 1769 2642 2001 
Q 2353 2234 1838 2234 
L 1294 2234 
L 1294 2753 
L 1863 2753 
Q 2328 2753 2575 2939 
Q 2822 3125 2822 3475 
Q 2822 3834 2567 4026 
Q 2313 4219 1838 4219 
Q 1578 4219 1281 4162 
Q 984 4106 628 3988 
L 628 4550 
Q 988 4650 1302 4700 
Q 1616 4750 1894 4750 
Q 2613 4750 3031 4423 
Q 3450 4097 3450 3541 
Q 3450 3153 3228 2886 
Q 3006 2619 2597 2516 
z
" transform="scale(0.015625)"/>
       </defs>
       <use xlink:href="#DejaVuSans-30"/>
       <use xlink:href="#DejaVuSans-2e" x="63.623047"/>
       <use xlink:href="#DejaVuSans-33" x="95.410156"/>
      </g>
     </g>
    </g>
    <g id="text_5">
     <!-- Feature importance score -->
     <g transform="translate(191.468102 352.485133) scale(0.168 -0.168)">
      <defs>
       <path id="DejaVuSans-46" d="M 628 4666 
L 3309 4666 
L 3309 4134 
L 1259 4134 
L 1259 2759 
L 3109 2759 
L 3109 2228 
L 1259 2228 
L 1259 0 
L 628 0 
L 628 4666 
z
" transform="scale(0.015625)"/>
       <path id="DejaVuSans-65" d="M 3597 1894 
L 3597 1613 
L 953 1613 
Q 991 1019 1311 708 
Q 1631 397 2203 397 
Q 2534 397 2845 478 
Q 3156 559 3463 722 
L 3463 178 
Q 3153 47 2828 -22 
Q 2503 -91 2169 -91 
Q 1331 -91 842 396 
Q 353 884 353 1716 
Q 353 2575 817 3079 
Q 1281 3584 2069 3584 
Q 2775 3584 3186 3129 
Q 3597 2675 3597 1894 
z
M 3022 2063 
Q 3016 2534 2758 2815 
Q 2500 3097 2075 3097 
Q 1594 3097 1305 2825 
Q 1016 2553 972 2059 
L 3022 2063 
z
" transform="scale(0.015625)"/>
       <path id="DejaVuSans-61" d="M 2194 1759 
Q 1497 1759 1228 1600 
Q 959 1441 959 1056 
Q 959 750 1161 570 
Q 1363 391 1709 391 
Q 2188 391 2477 730 
Q 2766 1069 2766 1631 
L 2766 1759 
L 2194 1759 
z
M 3341 1997 
L 3341 0 
L 2766 0 
L 2766 531 
Q 2569 213 2275 61 
Q 1981 -91 1556 -91 
Q 1019 -91 701 211 
Q 384 513 384 1019 
Q 384 1609 779 1909 
Q 1175 2209 1959 2209 
L 2766 2209 
L 2766 2266 
Q 2766 2663 2505 2880 
Q 2244 3097 1772 3097 
Q 1472 3097 1187 3025 
Q 903 2953 641 2809 
L 641 3341 
Q 956 3463 1253 3523 
Q 1550 3584 1831 3584 
Q 2591 3584 2966 3190 
Q 3341 2797 3341 1997 
z
" transform="scale(0.015625)"/>
       <path id="DejaVuSans-74" d="M 1172 4494 
L 1172 3500 
L 2356 3500 
L 2356 3053 
L 1172 3053 
L 1172 1153 
Q 1172 725 1289 603 
Q 1406 481 1766 481 
L 2356 481 
L 2356 0 
L 1766 0 
Q 1100 0 847 248 
Q 594 497 594 1153 
L 594 3053 
L 172 3053 
L 172 3500 
L 594 3500 
L 594 4494 
L 1172 4494 
z
" transform="scale(0.015625)"/>
       <path id="DejaVuSans-75" d="M 544 1381 
L 544 3500 
L 1119 3500 
L 1119 1403 
Q 1119 906 1312 657 
Q 1506 409 1894 409 
Q 2359 409 2629 706 
Q 2900 1003 2900 1516 
L 2900 3500 
L 3475 3500 
L 3475 0 
L 2900 0 
L 2900 538 
Q 2691 219 2414 64 
Q 2138 -91 1772 -91 
Q 1169 -91 856 284 
Q 544 659 544 1381 
z
M 1991 3584 
L 1991 3584 
z
" transform="scale(0.015625)"/>
       <path id="DejaVuSans-72" d="M 2631 2963 
Q 2534 3019 2420 3045 
Q 2306 3072 2169 3072 
Q 1681 3072 1420 2755 
Q 1159 2438 1159 1844 
L 1159 0 
L 581 0 
L 581 3500 
L 1159 3500 
L 1159 2956 
Q 1341 3275 1631 3429 
Q 1922 3584 2338 3584 
Q 2397 3584 2469 3576 
Q 2541 3569 2628 3553 
L 2631 2963 
z
" transform="scale(0.015625)"/>
       <path id="DejaVuSans-20" transform="scale(0.015625)"/>
       <path id="DejaVuSans-69" d="M 603 3500 
L 1178 3500 
L 1178 0 
L 603 0 
L 603 3500 
z
M 603 4863 
L 1178 4863 
L 1178 4134 
L 603 4134 
L 603 4863 
z
" transform="scale(0.015625)"/>
       <path id="DejaVuSans-6d" d="M 3328 2828 
Q 3544 3216 3844 3400 
Q 4144 3584 4550 3584 
Q 5097 3584 5394 3201 
Q 5691 2819 5691 2113 
L 5691 0 
L 5113 0 
L 5113 2094 
Q 5113 2597 4934 2840 
Q 4756 3084 4391 3084 
Q 3944 3084 3684 2787 
Q 3425 2491 3425 1978 
L 3425 0 
L 2847 0 
L 2847 2094 
Q 2847 2600 2669 2842 
Q 2491 3084 2119 3084 
Q 1678 3084 1418 2786 
Q 1159 2488 1159 1978 
L 1159 0 
L 581 0 
L 581 3500 
L 1159 3500 
L 1159 2956 
Q 1356 3278 1631 3431 
Q 1906 3584 2284 3584 
Q 2666 3584 2933 3390 
Q 3200 3197 3328 2828 
z
" transform="scale(0.015625)"/>
       <path id="DejaVuSans-70" d="M 1159 525 
L 1159 -1331 
L 581 -1331 
L 581 3500 
L 1159 3500 
L 1159 2969 
Q 1341 3281 1617 3432 
Q 1894 3584 2278 3584 
Q 2916 3584 3314 3078 
Q 3713 2572 3713 1747 
Q 3713 922 3314 415 
Q 2916 -91 2278 -91 
Q 1894 -91 1617 61 
Q 1341 213 1159 525 
z
M 3116 1747 
Q 3116 2381 2855 2742 
Q 2594 3103 2138 3103 
Q 1681 3103 1420 2742 
Q 1159 2381 1159 1747 
Q 1159 1113 1420 752 
Q 1681 391 2138 391 
Q 2594 391 2855 752 
Q 3116 1113 3116 1747 
z
" transform="scale(0.015625)"/>
       <path id="DejaVuSans-6f" d="M 1959 3097 
Q 1497 3097 1228 2736 
Q 959 2375 959 1747 
Q 959 1119 1226 758 
Q 1494 397 1959 397 
Q 2419 397 2687 759 
Q 2956 1122 2956 1747 
Q 2956 2369 2687 2733 
Q 2419 3097 1959 3097 
z
M 1959 3584 
Q 2709 3584 3137 3096 
Q 3566 2609 3566 1747 
Q 3566 888 3137 398 
Q 2709 -91 1959 -91 
Q 1206 -91 779 398 
Q 353 888 353 1747 
Q 353 2609 779 3096 
Q 1206 3584 1959 3584 
z
" transform="scale(0.015625)"/>
       <path id="DejaVuSans-6e" d="M 3513 2113 
L 3513 0 
L 2938 0 
L 2938 2094 
Q 2938 2591 2744 2837 
Q 2550 3084 2163 3084 
Q 1697 3084 1428 2787 
Q 1159 2491 1159 1978 
L 1159 0 
L 581 0 
L 581 3500 
L 1159 3500 
L 1159 2956 
Q 1366 3272 1645 3428 
Q 1925 3584 2291 3584 
Q 2894 3584 3203 3211 
Q 3513 2838 3513 2113 
z
" transform="scale(0.015625)"/>
       <path id="DejaVuSans-63" d="M 3122 3366 
L 3122 2828 
Q 2878 2963 2633 3030 
Q 2388 3097 2138 3097 
Q 1578 3097 1268 2742 
Q 959 2388 959 1747 
Q 959 1106 1268 751 
Q 1578 397 2138 397 
Q 2388 397 2633 464 
Q 2878 531 3122 666 
L 3122 134 
Q 2881 22 2623 -34 
Q 2366 -91 2075 -91 
Q 1284 -91 818 406 
Q 353 903 353 1747 
Q 353 2603 823 3093 
Q 1294 3584 2113 3584 
Q 2378 3584 2631 3529 
Q 2884 3475 3122 3366 
z
" transform="scale(0.015625)"/>
       <path id="DejaVuSans-73" d="M 2834 3397 
L 2834 2853 
Q 2591 2978 2328 3040 
Q 2066 3103 1784 3103 
Q 1356 3103 1142 2972 
Q 928 2841 928 2578 
Q 928 2378 1081 2264 
Q 1234 2150 1697 2047 
L 1894 2003 
Q 2506 1872 2764 1633 
Q 3022 1394 3022 966 
Q 3022 478 2636 193 
Q 2250 -91 1575 -91 
Q 1294 -91 989 -36 
Q 684 19 347 128 
L 347 722 
Q 666 556 975 473 
Q 1284 391 1588 391 
Q 1994 391 2212 530 
Q 2431 669 2431 922 
Q 2431 1156 2273 1281 
Q 2116 1406 1581 1522 
L 1381 1569 
Q 847 1681 609 1914 
Q 372 2147 372 2553 
Q 372 3047 722 3315 
Q 1072 3584 1716 3584 
Q 2034 3584 2315 3537 
Q 2597 3491 2834 3397 
z
" transform="scale(0.015625)"/>
      </defs>
      <use xlink:href="#DejaVuSans-46"/>
      <use xlink:href="#DejaVuSans-65" x="52.019531"/>
      <use xlink:href="#DejaVuSans-61" x="113.542969"/>
      <use xlink:href="#DejaVuSans-74" x="174.822266"/>
      <use xlink:href="#DejaVuSans-75" x="214.03125"/>
      <use xlink:href="#DejaVuSans-72" x="277.410156"/>
      <use xlink:href="#DejaVuSans-65" x="316.273438"/>
      <use xlink:href="#DejaVuSans-20" x="377.796875"/>
      <use xlink:href="#DejaVuSans-69" x="409.583984"/>
      <use xlink:href="#DejaVuSans-6d" x="437.367188"/>
      <use xlink:href="#DejaVuSans-70" x="534.779297"/>
      <use xlink:href="#DejaVuSans-6f" x="598.255859"/>
      <use xlink:href="#DejaVuSans-72" x="659.4375"/>
      <use xlink:href="#DejaVuSans-74" x="700.550781"/>
      <use xlink:href="#DejaVuSans-61" x="739.759766"/>
      <use xlink:href="#DejaVuSans-6e" x="801.039062"/>
      <use xlink:href="#DejaVuSans-63" x="864.417969"/>
      <use xlink:href="#DejaVuSans-65" x="919.398438"/>
      <use xlink:href="#DejaVuSans-20" x="980.921875"/>
      <use xlink:href="#DejaVuSans-73" x="1012.708984"/>
      <use xlink:href="#DejaVuSans-63" x="1064.808594"/>
      <use xlink:href="#DejaVuSans-6f" x="1119.789062"/>
      <use xlink:href="#DejaVuSans-72" x="1180.970703"/>
      <use xlink:href="#DejaVuSans-65" x="1219.833984"/>
     </g>
    </g>
   </g>
   <g id="matplotlib.axis_2">
    <g id="ytick_1">
     <g id="line2d_9"/>
     <g id="text_6">
      <!-- concave points -->
      <g transform="translate(46.138312 48.344953) scale(0.14 -0.14)">
       <defs>
        <path id="DejaVuSans-76" d="M 191 3500 
L 800 3500 
L 1894 563 
L 2988 3500 
L 3597 3500 
L 2284 0 
L 1503 0 
L 191 3500 
z
" transform="scale(0.015625)"/>
       </defs>
       <use xlink:href="#DejaVuSans-63"/>
       <use xlink:href="#DejaVuSans-6f" x="54.980469"/>
       <use xlink:href="#DejaVuSans-6e" x="116.162109"/>
       <use xlink:href="#DejaVuSans-63" x="179.541016"/>
       <use xlink:href="#DejaVuSans-61" x="234.521484"/>
       <use xlink:href="#DejaVuSans-76" x="295.800781"/>
       <use xlink:href="#DejaVuSans-65" x="354.980469"/>
       <use xlink:href="#DejaVuSans-20" x="416.503906"/>
       <use xlink:href="#DejaVuSans-70" x="448.291016"/>
       <use xlink:href="#DejaVuSans-6f" x="511.767578"/>
       <use xlink:href="#DejaVuSans-69" x="572.949219"/>
       <use xlink:href="#DejaVuSans-6e" x="600.732422"/>
       <use xlink:href="#DejaVuSans-74" x="664.111328"/>
       <use xlink:href="#DejaVuSans-73" x="703.320312"/>
      </g>
     </g>
    </g>
    <g id="ytick_2">
     <g id="line2d_10"/>
     <g id="text_7">
      <!-- perimeter -->
      <g transform="translate(82.643312 77.360146) scale(0.14 -0.14)">
       <use xlink:href="#DejaVuSans-70"/>
       <use xlink:href="#DejaVuSans-65" x="63.476562"/>
       <use xlink:href="#DejaVuSans-72" x="125"/>
       <use xlink:href="#DejaVuSans-69" x="166.113281"/>
       <use xlink:href="#DejaVuSans-6d" x="193.896484"/>
       <use xlink:href="#DejaVuSans-65" x="291.308594"/>
       <use xlink:href="#DejaVuSans-74" x="352.832031"/>
       <use xlink:href="#DejaVuSans-65" x="392.041016"/>
       <use xlink:href="#DejaVuSans-72" x="453.564453"/>
      </g>
     </g>
    </g>
    <g id="ytick_3">
     <g id="line2d_11"/>
     <g id="text_8">
      <!-- area -->
      <g transform="translate(120.686125 106.37534) scale(0.14 -0.14)">
       <use xlink:href="#DejaVuSans-61"/>
       <use xlink:href="#DejaVuSans-72" x="61.279297"/>
       <use xlink:href="#DejaVuSans-65" x="100.142578"/>
       <use xlink:href="#DejaVuSans-61" x="161.666016"/>
      </g>
     </g>
    </g>
    <g id="ytick_4">
     <g id="line2d_12"/>
     <g id="text_9">
      <!-- radius -->
      <g transform="translate(108.622062 135.390533) scale(0.14 -0.14)">
       <defs>
        <path id="DejaVuSans-64" d="M 2906 2969 
L 2906 4863 
L 3481 4863 
L 3481 0 
L 2906 0 
L 2906 525 
Q 2725 213 2448 61 
Q 2172 -91 1784 -91 
Q 1150 -91 751 415 
Q 353 922 353 1747 
Q 353 2572 751 3078 
Q 1150 3584 1784 3584 
Q 2172 3584 2448 3432 
Q 2725 3281 2906 2969 
z
M 947 1747 
Q 947 1113 1208 752 
Q 1469 391 1925 391 
Q 2381 391 2643 752 
Q 2906 1113 2906 1747 
Q 2906 2381 2643 2742 
Q 2381 3103 1925 3103 
Q 1469 3103 1208 2742 
Q 947 2381 947 1747 
z
" transform="scale(0.015625)"/>
       </defs>
       <use xlink:href="#DejaVuSans-72"/>
       <use xlink:href="#DejaVuSans-61" x="41.113281"/>
       <use xlink:href="#DejaVuSans-64" x="102.392578"/>
       <use xlink:href="#DejaVuSans-69" x="165.869141"/>
       <use xlink:href="#DejaVuSans-75" x="193.652344"/>
       <use xlink:href="#DejaVuSans-73" x="257.03125"/>
      </g>
     </g>
    </g>
    <g id="ytick_5">
     <g id="line2d_13"/>
     <g id="text_10">
      <!-- concavity -->
      <g transform="translate(84.5355 164.405726) scale(0.14 -0.14)">
       <defs>
        <path id="DejaVuSans-79" d="M 2059 -325 
Q 1816 -950 1584 -1140 
Q 1353 -1331 966 -1331 
L 506 -1331 
L 506 -850 
L 844 -850 
Q 1081 -850 1212 -737 
Q 1344 -625 1503 -206 
L 1606 56 
L 191 3500 
L 800 3500 
L 1894 763 
L 2988 3500 
L 3597 3500 
L 2059 -325 
z
" transform="scale(0.015625)"/>
       </defs>
       <use xlink:href="#DejaVuSans-63"/>
       <use xlink:href="#DejaVuSans-6f" x="54.980469"/>
       <use xlink:href="#DejaVuSans-6e" x="116.162109"/>
       <use xlink:href="#DejaVuSans-63" x="179.541016"/>
       <use xlink:href="#DejaVuSans-61" x="234.521484"/>
       <use xlink:href="#DejaVuSans-76" x="295.800781"/>
       <use xlink:href="#DejaVuSans-69" x="354.980469"/>
       <use xlink:href="#DejaVuSans-74" x="382.763672"/>
       <use xlink:href="#DejaVuSans-79" x="421.972656"/>
      </g>
     </g>
    </g>
    <g id="ytick_6">
     <g id="line2d_14"/>
     <g id="text_11">
      <!-- compactness -->
      <g transform="translate(59.272062 193.42092) scale(0.14 -0.14)">
       <use xlink:href="#DejaVuSans-63"/>
       <use xlink:href="#DejaVuSans-6f" x="54.980469"/>
       <use xlink:href="#DejaVuSans-6d" x="116.162109"/>
       <use xlink:href="#DejaVuSans-70" x="213.574219"/>
       <use xlink:href="#DejaVuSans-61" x="277.050781"/>
       <use xlink:href="#DejaVuSans-63" x="338.330078"/>
       <use xlink:href="#DejaVuSans-74" x="393.310547"/>
       <use xlink:href="#DejaVuSans-6e" x="432.519531"/>
       <use xlink:href="#DejaVuSans-65" x="495.898438"/>
       <use xlink:href="#DejaVuSans-73" x="557.421875"/>
       <use xlink:href="#DejaVuSans-73" x="609.521484"/>
      </g>
     </g>
    </g>
    <g id="ytick_7">
     <g id="line2d_15"/>
     <g id="text_12">
      <!-- texture -->
      <g transform="translate(101.339875 222.436113) scale(0.14 -0.14)">
       <defs>
        <path id="DejaVuSans-78" d="M 3513 3500 
L 2247 1797 
L 3578 0 
L 2900 0 
L 1881 1375 
L 863 0 
L 184 0 
L 1544 1831 
L 300 3500 
L 978 3500 
L 1906 2253 
L 2834 3500 
L 3513 3500 
z
" transform="scale(0.015625)"/>
       </defs>
       <use xlink:href="#DejaVuSans-74"/>
       <use xlink:href="#DejaVuSans-65" x="39.208984"/>
       <use xlink:href="#DejaVuSans-78" x="98.982422"/>
       <use xlink:href="#DejaVuSans-74" x="158.162109"/>
       <use xlink:href="#DejaVuSans-75" x="197.371094"/>
       <use xlink:href="#DejaVuSans-72" x="260.75"/>
       <use xlink:href="#DejaVuSans-65" x="299.613281"/>
      </g>
     </g>
    </g>
    <g id="ytick_8">
     <g id="line2d_16"/>
     <g id="text_13">
      <!-- smoothness -->
      <g transform="translate(67.403 251.451306) scale(0.14 -0.14)">
       <defs>
        <path id="DejaVuSans-68" d="M 3513 2113 
L 3513 0 
L 2938 0 
L 2938 2094 
Q 2938 2591 2744 2837 
Q 2550 3084 2163 3084 
Q 1697 3084 1428 2787 
Q 1159 2491 1159 1978 
L 1159 0 
L 581 0 
L 581 4863 
L 1159 4863 
L 1159 2956 
Q 1366 3272 1645 3428 
Q 1925 3584 2291 3584 
Q 2894 3584 3203 3211 
Q 3513 2838 3513 2113 
z
" transform="scale(0.015625)"/>
       </defs>
       <use xlink:href="#DejaVuSans-73"/>
       <use xlink:href="#DejaVuSans-6d" x="52.099609"/>
       <use xlink:href="#DejaVuSans-6f" x="149.511719"/>
       <use xlink:href="#DejaVuSans-6f" x="210.693359"/>
       <use xlink:href="#DejaVuSans-74" x="271.875"/>
       <use xlink:href="#DejaVuSans-68" x="311.083984"/>
       <use xlink:href="#DejaVuSans-6e" x="374.462891"/>
       <use xlink:href="#DejaVuSans-65" x="437.841797"/>
       <use xlink:href="#DejaVuSans-73" x="499.365234"/>
       <use xlink:href="#DejaVuSans-73" x="551.464844"/>
      </g>
     </g>
    </g>
    <g id="ytick_9">
     <g id="line2d_17"/>
     <g id="text_14">
      <!-- fractal_dimension -->
      <g transform="translate(27.45925 280.4665) scale(0.14 -0.14)">
       <defs>
        <path id="DejaVuSans-66" d="M 2375 4863 
L 2375 4384 
L 1825 4384 
Q 1516 4384 1395 4259 
Q 1275 4134 1275 3809 
L 1275 3500 
L 2222 3500 
L 2222 3053 
L 1275 3053 
L 1275 0 
L 697 0 
L 697 3053 
L 147 3053 
L 147 3500 
L 697 3500 
L 697 3744 
Q 697 4328 969 4595 
Q 1241 4863 1831 4863 
L 2375 4863 
z
" transform="scale(0.015625)"/>
        <path id="DejaVuSans-6c" d="M 603 4863 
L 1178 4863 
L 1178 0 
L 603 0 
L 603 4863 
z
" transform="scale(0.015625)"/>
        <path id="DejaVuSans-5f" d="M 3263 -1063 
L 3263 -1509 
L -63 -1509 
L -63 -1063 
L 3263 -1063 
z
" transform="scale(0.015625)"/>
       </defs>
       <use xlink:href="#DejaVuSans-66"/>
       <use xlink:href="#DejaVuSans-72" x="35.205078"/>
       <use xlink:href="#DejaVuSans-61" x="76.318359"/>
       <use xlink:href="#DejaVuSans-63" x="137.597656"/>
       <use xlink:href="#DejaVuSans-74" x="192.578125"/>
       <use xlink:href="#DejaVuSans-61" x="231.787109"/>
       <use xlink:href="#DejaVuSans-6c" x="293.066406"/>
       <use xlink:href="#DejaVuSans-5f" x="320.849609"/>
       <use xlink:href="#DejaVuSans-64" x="370.849609"/>
       <use xlink:href="#DejaVuSans-69" x="434.326172"/>
       <use xlink:href="#DejaVuSans-6d" x="462.109375"/>
       <use xlink:href="#DejaVuSans-65" x="559.521484"/>
       <use xlink:href="#DejaVuSans-6e" x="621.044922"/>
       <use xlink:href="#DejaVuSans-73" x="684.423828"/>
       <use xlink:href="#DejaVuSans-69" x="736.523438"/>
       <use xlink:href="#DejaVuSans-6f" x="764.306641"/>
       <use xlink:href="#DejaVuSans-6e" x="825.488281"/>
      </g>
     </g>
    </g>
    <g id="ytick_10">
     <g id="line2d_18"/>
     <g id="text_15">
      <!-- symmetry -->
      <g transform="translate(80.902062 309.481693) scale(0.14 -0.14)">
       <use xlink:href="#DejaVuSans-73"/>
       <use xlink:href="#DejaVuSans-79" x="52.099609"/>
       <use xlink:href="#DejaVuSans-6d" x="111.279297"/>
       <use xlink:href="#DejaVuSans-6d" x="208.691406"/>
       <use xlink:href="#DejaVuSans-65" x="306.103516"/>
       <use xlink:href="#DejaVuSans-74" x="367.626953"/>
       <use xlink:href="#DejaVuSans-72" x="406.835938"/>
       <use xlink:href="#DejaVuSans-79" x="447.949219"/>
      </g>
     </g>
    </g>
    <g id="text_16">
     <!-- Features -->
     <g transform="translate(19.965375 209.705229) rotate(-90) scale(0.168 -0.168)">
      <use xlink:href="#DejaVuSans-46"/>
      <use xlink:href="#DejaVuSans-65" x="52.019531"/>
      <use xlink:href="#DejaVuSans-61" x="113.542969"/>
      <use xlink:href="#DejaVuSans-74" x="174.822266"/>
      <use xlink:href="#DejaVuSans-75" x="214.03125"/>
      <use xlink:href="#DejaVuSans-72" x="277.410156"/>
      <use xlink:href="#DejaVuSans-65" x="316.273438"/>
      <use xlink:href="#DejaVuSans-73" x="377.796875"/>
     </g>
    </g>
   </g>
   <g id="patch_3">
    <path d="M 155.399563 31.419969 
L 429.119043 31.419969 
L 429.119043 54.632124 
L 155.399563 54.632124 
z
" clip-path="url(#p7befc0f10a)" style="fill: #ea96a3"/>
   </g>
   <g id="patch_4">
    <path d="M 155.399563 60.435163 
L 297.794976 60.435163 
L 297.794976 83.647317 
L 155.399563 83.647317 
z
" clip-path="url(#p7befc0f10a)" style="fill: #d7944e"/>
   </g>
   <g id="patch_5">
    <path d="M 155.399563 89.450356 
L 288.520174 89.450356 
L 288.520174 112.662511 
L 155.399563 112.662511 
z
" clip-path="url(#p7befc0f10a)" style="fill: #ab9e47"/>
   </g>
   <g id="patch_6">
    <path d="M 155.399563 118.465549 
L 282.777696 118.465549 
L 282.777696 141.677704 
L 155.399563 141.677704 
z
" clip-path="url(#p7befc0f10a)" style="fill: #7fa946"/>
   </g>
   <g id="patch_7">
    <path d="M 155.399563 147.480743 
L 272.779057 147.480743 
L 272.779057 170.692897 
L 155.399563 170.692897 
z
" clip-path="url(#p7befc0f10a)" style="fill: #49ae83"/>
   </g>
   <g id="patch_8">
    <path d="M 155.399563 176.495936 
L 192.220015 176.495936 
L 192.220015 199.708091 
L 155.399563 199.708091 
z
" clip-path="url(#p7befc0f10a)" style="fill: #4baba4"/>
   </g>
   <g id="patch_9">
    <path d="M 155.399563 205.511129 
L 183.464017 205.511129 
L 183.464017 228.723284 
L 155.399563 228.723284 
z
" clip-path="url(#p7befc0f10a)" style="fill: #50acc3"/>
   </g>
   <g id="patch_10">
    <path d="M 155.399563 234.526323 
L 167.15198 234.526323 
L 167.15198 257.738477 
L 155.399563 257.738477 
z
" clip-path="url(#p7befc0f10a)" style="fill: #94aee8"/>
   </g>
   <g id="patch_11">
    <path d="M 155.399563 263.541516 
L 161.402882 263.541516 
L 161.402882 286.753671 
L 155.399563 286.753671 
z
" clip-path="url(#p7befc0f10a)" style="fill: #ce9be9"/>
   </g>
   <g id="patch_12">
    <path d="M 155.399563 292.556709 
L 160.936704 292.556709 
L 160.936704 315.768864 
L 155.399563 315.768864 
z
" clip-path="url(#p7befc0f10a)" style="fill: #e88fcc"/>
   </g>
   <g id="line2d_19">
    <path clip-path="url(#p7befc0f10a)" style="fill: none; stroke: #424242; stroke-width: 7.2"/>
   </g>
   <g id="line2d_20">
    <path clip-path="url(#p7befc0f10a)" style="fill: none; stroke: #424242; stroke-width: 7.2"/>
   </g>
   <g id="line2d_21">
    <path clip-path="url(#p7befc0f10a)" style="fill: none; stroke: #424242; stroke-width: 7.2"/>
   </g>
   <g id="line2d_22">
    <path clip-path="url(#p7befc0f10a)" style="fill: none; stroke: #424242; stroke-width: 7.2"/>
   </g>
   <g id="line2d_23">
    <path clip-path="url(#p7befc0f10a)" style="fill: none; stroke: #424242; stroke-width: 7.2"/>
   </g>
   <g id="line2d_24">
    <path clip-path="url(#p7befc0f10a)" style="fill: none; stroke: #424242; stroke-width: 7.2"/>
   </g>
   <g id="line2d_25">
    <path clip-path="url(#p7befc0f10a)" style="fill: none; stroke: #424242; stroke-width: 7.2"/>
   </g>
   <g id="line2d_26">
    <path clip-path="url(#p7befc0f10a)" style="fill: none; stroke: #424242; stroke-width: 7.2"/>
   </g>
   <g id="line2d_27">
    <path clip-path="url(#p7befc0f10a)" style="fill: none; stroke: #424242; stroke-width: 7.2"/>
   </g>
   <g id="line2d_28">
    <path clip-path="url(#p7befc0f10a)" style="fill: none; stroke: #424242; stroke-width: 7.2"/>
   </g>
   <g id="patch_13">
    <path d="M 155.399563 318.670383 
L 155.399563 28.51845 
" style="fill: none; stroke: #f0f0f0; stroke-width: 3; stroke-linejoin: miter; stroke-linecap: square"/>
   </g>
   <g id="patch_14">
    <path d="M 442.805017 318.670383 
L 442.805017 28.51845 
" style="fill: none; stroke: #f0f0f0; stroke-width: 3; stroke-linejoin: miter; stroke-linecap: square"/>
   </g>
   <g id="patch_15">
    <path d="M 155.399563 318.670383 
L 442.805017 318.670383 
" style="fill: none; stroke: #f0f0f0; stroke-width: 3; stroke-linejoin: miter; stroke-linecap: square"/>
   </g>
   <g id="patch_16">
    <path d="M 155.399563 28.51845 
L 442.805017 28.51845 
" style="fill: none; stroke: #f0f0f0; stroke-width: 3; stroke-linejoin: miter; stroke-linecap: square"/>
   </g>
   <g id="text_17">
    <!-- Feature scores in RF -->
    <g transform="translate(197.087965 22.51845) scale(0.2016 -0.2016)">
     <defs>
      <path id="DejaVuSans-52" d="M 2841 2188 
Q 3044 2119 3236 1894 
Q 3428 1669 3622 1275 
L 4263 0 
L 3584 0 
L 2988 1197 
Q 2756 1666 2539 1819 
Q 2322 1972 1947 1972 
L 1259 1972 
L 1259 0 
L 628 0 
L 628 4666 
L 2053 4666 
Q 2853 4666 3247 4331 
Q 3641 3997 3641 3322 
Q 3641 2881 3436 2590 
Q 3231 2300 2841 2188 
z
M 1259 4147 
L 1259 2491 
L 2053 2491 
Q 2509 2491 2742 2702 
Q 2975 2913 2975 3322 
Q 2975 3731 2742 3939 
Q 2509 4147 2053 4147 
L 1259 4147 
z
" transform="scale(0.015625)"/>
     </defs>
     <use xlink:href="#DejaVuSans-46"/>
     <use xlink:href="#DejaVuSans-65" x="52.019531"/>
     <use xlink:href="#DejaVuSans-61" x="113.542969"/>
     <use xlink:href="#DejaVuSans-74" x="174.822266"/>
     <use xlink:href="#DejaVuSans-75" x="214.03125"/>
     <use xlink:href="#DejaVuSans-72" x="277.410156"/>
     <use xlink:href="#DejaVuSans-65" x="316.273438"/>
     <use xlink:href="#DejaVuSans-20" x="377.796875"/>
     <use xlink:href="#DejaVuSans-73" x="409.583984"/>
     <use xlink:href="#DejaVuSans-63" x="461.683594"/>
     <use xlink:href="#DejaVuSans-6f" x="516.664062"/>
     <use xlink:href="#DejaVuSans-72" x="577.845703"/>
     <use xlink:href="#DejaVuSans-65" x="616.708984"/>
     <use xlink:href="#DejaVuSans-73" x="678.232422"/>
     <use xlink:href="#DejaVuSans-20" x="730.332031"/>
     <use xlink:href="#DejaVuSans-69" x="762.119141"/>
     <use xlink:href="#DejaVuSans-6e" x="789.902344"/>
     <use xlink:href="#DejaVuSans-20" x="853.28125"/>
     <use xlink:href="#DejaVuSans-52" x="885.068359"/>
     <use xlink:href="#DejaVuSans-46" x="954.550781"/>
    </g>
   </g>
  </g>
 </g>
 <defs>
  <clipPath id="p7befc0f10a">
   <rect x="155.399563" y="28.51845" width="287.405455" height="290.151933"/>
  </clipPath>
 </defs>
</svg>
